<?xml version="1.0" encoding="utf-8"?>
<!-- Generator: Adobe Illustrator 16.0.0, SVG Export Plug-In . SVG Version: 6.00 Build 0)  -->
<!DOCTYPE svg PUBLIC "-//W3C//DTD SVG 1.1//EN" "http://www.w3.org/Graphics/SVG/1.1/DTD/svg11.dtd">
<svg version="1.1" id="Livello_1" xmlns="http://www.w3.org/2000/svg" xmlns:xlink="http://www.w3.org/1999/xlink" x="0px" y="0px"
	 width="152.98px" height="91.988px" viewBox="0 0 152.98 91.988" enable-background="new 0 0 152.98 91.988" xml:space="preserve">
<path fill-rule="evenodd" clip-rule="evenodd" fill="#941A30" d="M90.088,18.187V4.335C81.608,7.922,76.89,14.781,74.289,23.393
	c-7.559-4.919-15.294-5.958-23.775-5.646v34.77c8.48,0.999,19.936,1.837,25.44,10.318h4.498c5.966-8.481,13.877-9.312,22.356-10.34
	v-34.55C98.568,17.232,94.329,17.978,90.088,18.187 M73.128,51.961c-4.24-3.272-11.307-4.311-16.961-5.134V23.696
	c1.413,0.295,3.706,0.439,5.33,0.774c9.615,1.988,11.631,4.531,11.631,14.259V51.961z M80.452,41.476
	c-0.197-9.095-1.672-17.622,5.396-25.938v20.824C83.021,37.909,82.561,39.479,80.452,41.476 M95.741,46.751
	c-4.24,0.972-9.735,1.501-14.756,3.937c1.705-5.314,6.276-8.269,9.103-10.921V25.127c1.413-1.388,4.241-0.825,5.653-1.722V46.751z"
	/>
<g>
	<path fill="#787879" d="M1.457,87.729V90.1H0.34v-5.471h3.04v0.901h-1.93v1.297h1.854v0.901H1.457z"/>
	<path fill="#787879" d="M5.53,90.1H4.425v-5.471H5.53V90.1z"/>
	<path fill="#787879" d="M10.14,89.206V90.1H6.9v-5.471h1.105v4.577H10.14z"/>
	<path fill="#787879" d="M16.023,87.4c0,0.545-0.106,1.032-0.318,1.462s-0.52,0.764-0.923,1.003
		c-0.403,0.239-0.878,0.358-1.426,0.358c-0.563,0-1.048-0.12-1.454-0.36s-0.712-0.577-0.919-1.012
		c-0.207-0.434-0.31-0.931-0.31-1.491s0.104-1.056,0.313-1.486c0.208-0.43,0.515-0.764,0.919-1.003s0.889-0.358,1.452-0.358
		c0.427,0,0.809,0.07,1.146,0.212s0.617,0.342,0.841,0.601c0.224,0.26,0.394,0.563,0.508,0.914
		C15.966,86.589,16.023,86.976,16.023,87.4z M14.85,87.376c0-0.237-0.029-0.475-0.088-0.713c-0.059-0.237-0.15-0.455-0.274-0.652
		c-0.124-0.198-0.281-0.356-0.47-0.475c-0.19-0.119-0.413-0.179-0.669-0.179c-0.336,0-0.618,0.101-0.843,0.301
		s-0.392,0.456-0.499,0.767c-0.107,0.312-0.16,0.628-0.16,0.951s0.053,0.639,0.16,0.947s0.274,0.562,0.503,0.759
		c0.228,0.198,0.51,0.297,0.847,0.297c0.251,0,0.472-0.059,0.663-0.177c0.191-0.117,0.347-0.274,0.468-0.473
		c0.122-0.197,0.212-0.413,0.272-0.648S14.85,87.611,14.85,87.376z"/>
	<path fill="#787879" d="M20.321,89.206V90.1h-3.24v-5.471h1.105v4.577H20.321z"/>
	<path fill="#787879" d="M26.204,87.4c0,0.545-0.106,1.032-0.318,1.462s-0.52,0.764-0.923,1.003
		c-0.403,0.239-0.878,0.358-1.426,0.358c-0.563,0-1.048-0.12-1.454-0.36s-0.712-0.577-0.919-1.012
		c-0.207-0.434-0.31-0.931-0.31-1.491s0.104-1.056,0.313-1.486c0.208-0.43,0.515-0.764,0.919-1.003s0.889-0.358,1.452-0.358
		c0.427,0,0.809,0.07,1.146,0.212s0.617,0.342,0.841,0.601c0.224,0.26,0.394,0.563,0.508,0.914
		C26.146,86.589,26.204,86.976,26.204,87.4z M25.031,87.376c0-0.237-0.029-0.475-0.088-0.713c-0.059-0.237-0.15-0.455-0.274-0.652
		c-0.124-0.198-0.281-0.356-0.47-0.475c-0.19-0.119-0.413-0.179-0.669-0.179c-0.336,0-0.618,0.101-0.843,0.301
		s-0.392,0.456-0.499,0.767c-0.107,0.312-0.16,0.628-0.16,0.951s0.053,0.639,0.16,0.947s0.274,0.562,0.503,0.759
		c0.228,0.198,0.51,0.297,0.847,0.297c0.251,0,0.472-0.059,0.663-0.177c0.191-0.117,0.347-0.274,0.468-0.473
		c0.122-0.197,0.212-0.413,0.272-0.648S25.031,87.611,25.031,87.376z"/>
	<path fill="#787879" d="M31.755,86.916v2.939c-0.537,0.189-1.124,0.284-1.762,0.284c-0.454,0-0.865-0.057-1.233-0.17
		c-0.369-0.113-0.684-0.286-0.947-0.517c-0.263-0.231-0.464-0.523-0.605-0.877c-0.14-0.354-0.21-0.762-0.21-1.224
		c0-0.457,0.079-0.86,0.236-1.212c0.157-0.351,0.379-0.643,0.665-0.873s0.618-0.401,0.998-0.513c0.379-0.11,0.792-0.166,1.237-0.166
		c0.51,0,1.001,0.073,1.474,0.22l-0.072,0.97c-0.462-0.208-0.941-0.313-1.438-0.313c-0.379,0-0.714,0.072-1.005,0.216
		c-0.291,0.145-0.518,0.355-0.679,0.633c-0.162,0.278-0.242,0.61-0.242,0.998c0,0.27,0.042,0.523,0.124,0.761
		c0.083,0.237,0.205,0.445,0.367,0.625c0.162,0.179,0.355,0.317,0.583,0.416s0.482,0.148,0.765,0.148
		c0.232,0,0.464-0.039,0.697-0.116v-1.33H29.54v-0.9H31.755z"/>
	<path fill="#787879" d="M34.146,90.1h-1.105v-5.471h1.105V90.1z"/>
	<path fill="#787879" d="M40.494,90.1H39.29l-0.477-1.241h-2.261L36.083,90.1h-1.141l2.133-5.471h1.229L40.494,90.1z M38.477,87.957
		l-0.705-1.935c-0.016-0.043-0.052-0.163-0.108-0.36c-0.021,0.083-0.043,0.166-0.064,0.25c-0.021,0.084-0.04,0.151-0.056,0.202
		l-0.656,1.843H38.477z"/>
	<path fill="#787879" d="M42.344,89.019l-0.689,1.97h-0.917l0.493-1.97H42.344z"/>
	<path fill="#787879" d="M46.654,89.206V90.1h-3.24v-5.471h1.105v4.577H46.654z"/>
	<path fill="#787879" d="M50.723,89.206V90.1h-3.272v-5.471h3.24v0.901h-2.135v1.321h1.955v0.894h-1.955v1.461H50.723z"/>
	<path fill="#787879" d="M53.938,90.1h-1.105V85.53h-1.562v-0.901h4.241v0.901h-1.574V90.1z"/>
	<path fill="#787879" d="M58.336,90.1h-1.105V85.53h-1.562v-0.901h4.241v0.901h-1.574V90.1z"/>
	<path fill="#787879" d="M63.923,89.206V90.1h-3.272v-5.471h3.24v0.901h-2.135v1.321h1.955v0.894h-1.955v1.461H63.923z"/>
	<path fill="#787879" d="M66.17,90.1h-1.117v-5.471h1.796c0.361,0,0.688,0.039,0.984,0.118s0.534,0.224,0.716,0.437
		c0.182,0.212,0.272,0.508,0.272,0.887c0,0.35-0.099,0.639-0.296,0.867c-0.197,0.229-0.468,0.369-0.813,0.423
		c0.179,0.066,0.313,0.164,0.401,0.292c0.088,0.128,0.179,0.308,0.272,0.537l0.789,1.91h-1.229l-0.601-1.55
		c-0.083-0.225-0.17-0.385-0.26-0.482c-0.091-0.098-0.204-0.162-0.339-0.192c-0.135-0.031-0.326-0.046-0.575-0.046V90.1z
		 M66.162,86.983h0.493c0.286,0,0.521-0.06,0.707-0.18c0.186-0.12,0.278-0.313,0.278-0.577c0-0.496-0.298-0.745-0.893-0.745h-0.585
		V86.983z"/>
	<path fill="#787879" d="M74.925,90.1h-1.204l-0.477-1.241h-2.261L70.515,90.1h-1.141l2.133-5.471h1.229L74.925,90.1z
		 M72.908,87.957l-0.705-1.935c-0.016-0.043-0.052-0.163-0.108-0.36c-0.021,0.083-0.043,0.166-0.064,0.25
		c-0.021,0.084-0.04,0.151-0.056,0.202l-0.656,1.843H72.908z"/>
	<path fill="#787879" d="M77.736,90.1h-1.105V85.53h-1.562v-0.901h4.241v0.901h-1.574V90.1z"/>
	<path fill="#787879" d="M83.457,84.637h1.064v3.313c0,0.499-0.078,0.917-0.232,1.253c-0.154,0.337-0.395,0.591-0.721,0.764
		c-0.326,0.172-0.744,0.258-1.254,0.258c-0.512,0-0.936-0.082-1.271-0.246s-0.584-0.416-0.746-0.755
		c-0.164-0.339-0.244-0.767-0.244-1.282v-3.304h1.105v3.208c0,0.454,0.086,0.817,0.26,1.092c0.174,0.273,0.477,0.41,0.912,0.41
		c0.299,0,0.531-0.072,0.697-0.216c0.166-0.145,0.279-0.331,0.338-0.56c0.061-0.228,0.092-0.486,0.092-0.774V84.637z"/>
	<path fill="#787879" d="M86.949,90.1H85.83v-5.471h1.797c0.361,0,0.689,0.039,0.984,0.118s0.533,0.224,0.715,0.437
		c0.184,0.212,0.273,0.508,0.273,0.887c0,0.35-0.1,0.639-0.297,0.867s-0.469,0.369-0.813,0.423c0.18,0.066,0.313,0.164,0.4,0.292
		s0.18,0.308,0.273,0.537l0.789,1.91h-1.23l-0.602-1.55c-0.082-0.225-0.168-0.385-0.26-0.482c-0.09-0.098-0.203-0.162-0.338-0.192
		c-0.135-0.031-0.326-0.046-0.574-0.046V90.1z M86.941,86.983h0.492c0.285,0,0.521-0.06,0.707-0.18s0.277-0.313,0.277-0.577
		c0-0.496-0.297-0.745-0.893-0.745h-0.584V86.983z"/>
	<path fill="#787879" d="M95.711,90.1h-1.203l-0.477-1.241H91.77L91.301,90.1H90.16l2.133-5.471h1.23L95.711,90.1z M93.695,87.957
		l-0.705-1.935c-0.016-0.043-0.053-0.163-0.107-0.36c-0.021,0.083-0.043,0.166-0.064,0.25s-0.041,0.151-0.057,0.202l-0.656,1.843
		H93.695z"/>
	<path fill="#787879" d="M101.99,89.206V90.1h-3.271v-5.471h3.24v0.901h-2.135v1.321h1.955v0.894h-1.955v1.461H101.99z"/>
	<path fill="#787879" d="M108.643,89.206V90.1h-3.238v-5.471h1.105v4.577H108.643z"/>
	<path fill="#787879" d="M110.598,90.1h-1.105v-5.471h1.105V90.1z"/>
	<path fill="#787879" d="M116.469,90.1h-1.328l-1.795-3.304c-0.115-0.209-0.266-0.531-0.453-0.97
		c0.084,0.568,0.125,1.039,0.125,1.41V90.1h-1.049v-5.471h1.301l1.838,3.312c0.064,0.118,0.107,0.202,0.127,0.253
		s0.059,0.146,0.113,0.288c0.057,0.142,0.113,0.284,0.172,0.429c-0.066-0.382-0.1-0.828-0.1-1.338v-2.943h1.049V90.1z"/>
	<path fill="#787879" d="M122.277,86.916v2.939c-0.537,0.189-1.125,0.284-1.762,0.284c-0.455,0-0.865-0.057-1.234-0.17
		s-0.684-0.286-0.947-0.517c-0.264-0.231-0.465-0.523-0.605-0.877c-0.139-0.354-0.209-0.762-0.209-1.224
		c0-0.457,0.078-0.86,0.236-1.212c0.156-0.351,0.379-0.643,0.664-0.873s0.619-0.401,0.998-0.513c0.379-0.11,0.791-0.166,1.236-0.166
		c0.51,0,1.002,0.073,1.475,0.22l-0.072,0.97c-0.463-0.208-0.941-0.313-1.438-0.313c-0.379,0-0.715,0.072-1.006,0.216
		c-0.291,0.145-0.518,0.355-0.678,0.633c-0.162,0.278-0.242,0.61-0.242,0.998c0,0.27,0.041,0.523,0.123,0.761
		s0.205,0.445,0.367,0.625c0.16,0.179,0.355,0.317,0.582,0.416s0.482,0.148,0.766,0.148c0.232,0,0.465-0.039,0.697-0.116v-1.33
		h-1.166v-0.9H122.277z"/>
	<path fill="#787879" d="M126.914,84.637h1.064v3.313c0,0.499-0.076,0.917-0.23,1.253c-0.156,0.337-0.396,0.591-0.723,0.764
		c-0.324,0.172-0.742,0.258-1.252,0.258c-0.514,0-0.938-0.082-1.271-0.246c-0.336-0.164-0.586-0.416-0.748-0.755
		s-0.244-0.767-0.244-1.282v-3.304h1.105v3.208c0,0.454,0.086,0.817,0.26,1.092c0.174,0.273,0.479,0.41,0.914,0.41
		c0.299,0,0.531-0.072,0.697-0.216c0.164-0.145,0.277-0.331,0.338-0.56c0.061-0.228,0.09-0.486,0.09-0.774V84.637z"/>
	<path fill="#787879" d="M130.451,90.1h-1.105v-5.471h1.105V90.1z"/>
	<path fill="#787879" d="M131.732,89.976l0.102-0.981c0.432,0.235,0.846,0.353,1.238,0.353c0.254,0,0.477-0.063,0.668-0.188
		c0.191-0.125,0.287-0.31,0.287-0.553c0-0.245-0.082-0.42-0.242-0.524c-0.162-0.104-0.457-0.248-0.881-0.431
		c-0.426-0.183-0.744-0.387-0.957-0.612s-0.318-0.548-0.318-0.968c0-0.35,0.088-0.642,0.266-0.875s0.414-0.405,0.705-0.517
		c0.293-0.11,0.613-0.166,0.957-0.166c0.463,0,0.898,0.072,1.307,0.216l-0.092,0.901c-0.396-0.182-0.775-0.272-1.133-0.272
		c-0.234,0-0.439,0.053-0.615,0.158c-0.174,0.105-0.262,0.271-0.262,0.499c0,0.216,0.064,0.364,0.195,0.444s0.428,0.223,0.893,0.427
		c0.463,0.204,0.803,0.422,1.023,0.652c0.219,0.231,0.328,0.555,0.328,0.972c0,0.296-0.055,0.553-0.164,0.769
		c-0.111,0.217-0.262,0.395-0.455,0.535c-0.195,0.14-0.416,0.243-0.666,0.311c-0.25,0.066-0.516,0.1-0.797,0.1
		C132.676,90.224,132.213,90.141,131.732,89.976z"/>
	<path fill="#787879" d="M138.332,90.1h-1.105V85.53h-1.561v-0.901h4.24v0.901h-1.574V90.1z"/>
	<path fill="#787879" d="M141.805,90.1h-1.105v-5.471h1.105V90.1z"/>
	<path fill="#787879" d="M147.127,88.994l0.041,0.965c-0.453,0.12-0.869,0.181-1.246,0.181c-0.428,0-0.822-0.056-1.186-0.168
		s-0.682-0.284-0.959-0.515c-0.275-0.231-0.488-0.518-0.637-0.859s-0.223-0.735-0.223-1.182c0-0.445,0.066-0.845,0.201-1.197
		c0.133-0.353,0.328-0.65,0.582-0.896c0.256-0.244,0.563-0.428,0.92-0.551c0.357-0.122,0.758-0.184,1.201-0.184
		c0.395,0,0.836,0.079,1.322,0.236l-0.088,0.937c-0.361-0.197-0.752-0.296-1.174-0.296c-0.357,0-0.674,0.077-0.945,0.23
		c-0.273,0.153-0.482,0.367-0.627,0.643c-0.146,0.275-0.219,0.592-0.219,0.949c0,0.371,0.076,0.705,0.23,1.001
		c0.154,0.297,0.371,0.526,0.654,0.689c0.283,0.162,0.615,0.244,0.994,0.244C146.33,89.223,146.717,89.146,147.127,88.994z"/>
	<path fill="#787879" d="M152.982,90.1h-1.203l-0.477-1.241h-2.262l-0.469,1.241h-1.141l2.133-5.471h1.23L152.982,90.1z
		 M150.967,87.957l-0.705-1.935c-0.016-0.043-0.053-0.163-0.107-0.36c-0.021,0.083-0.043,0.166-0.064,0.25s-0.041,0.151-0.057,0.202
		l-0.656,1.843H150.967z"/>
</g>
<g>
	<path fill="#787879" d="M31.505,72.252v4.39c0,1.661,0.737,2.365,1.727,2.365c1.1,0,1.804-0.726,1.804-2.365v-4.39h0.968v4.323
		c0,2.277-1.199,3.213-2.806,3.213c-1.518,0-2.662-0.869-2.662-3.169v-4.367H31.505z"/>
	<path fill="#787879" d="M37.665,79.667v-7.415h1.045l2.376,3.752c0.55,0.869,0.979,1.649,1.331,2.409l0.022-0.012
		c-0.088-0.989-0.11-1.892-0.11-3.047v-3.103h0.902v7.415h-0.968l-2.354-3.763c-0.517-0.825-1.012-1.672-1.386-2.476L38.49,73.44
		c0.055,0.935,0.077,1.826,0.077,3.058v3.169H37.665z"/>
	<path fill="#787879" d="M45.86,72.252v7.415h-0.958v-7.415H45.86z"/>
	<path fill="#787879" d="M49.16,79.667l-2.42-7.415h1.034l1.155,3.652c0.319,1.001,0.594,1.903,0.792,2.772h0.022
		c0.209-0.858,0.517-1.793,0.847-2.762l1.254-3.663h1.023l-2.651,7.415H49.16z"/>
	<path fill="#787879" d="M57.509,76.19h-2.882v2.674h3.212v0.803h-4.17v-7.415h4.005v0.803h-3.047v2.344h2.882V76.19z"/>
	<path fill="#787879" d="M59.082,72.351c0.484-0.099,1.177-0.153,1.837-0.153c1.023,0,1.683,0.187,2.146,0.604
		c0.374,0.33,0.583,0.836,0.583,1.408c0,0.979-0.616,1.629-1.397,1.893v0.033c0.572,0.198,0.913,0.726,1.089,1.496
		c0.242,1.034,0.418,1.749,0.572,2.035h-0.99c-0.121-0.209-0.286-0.847-0.495-1.771c-0.22-1.022-0.616-1.408-1.485-1.441h-0.902
		v3.213h-0.958V72.351z M60.039,75.729h0.979c1.023,0,1.672-0.562,1.672-1.408c0-0.957-0.693-1.375-1.706-1.387
		c-0.462,0-0.792,0.045-0.946,0.089V75.729z"/>
	<path fill="#787879" d="M64.868,78.501c0.429,0.264,1.056,0.484,1.716,0.484c0.979,0,1.551-0.518,1.551-1.266
		c0-0.693-0.396-1.089-1.397-1.475c-1.21-0.429-1.958-1.056-1.958-2.101c0-1.155,0.957-2.014,2.398-2.014
		c0.759,0,1.309,0.176,1.639,0.363l-0.264,0.781c-0.242-0.133-0.737-0.353-1.408-0.353c-1.012,0-1.397,0.605-1.397,1.111
		c0,0.693,0.451,1.034,1.475,1.431c1.254,0.483,1.892,1.089,1.892,2.178c0,1.145-0.847,2.135-2.596,2.135
		c-0.715,0-1.497-0.209-1.893-0.474L64.868,78.501z"/>
	<path fill="#787879" d="M71.38,72.252v7.415h-0.958v-7.415H71.38z"/>
	<path fill="#787879" d="M74.459,73.066h-2.255v-0.814h5.49v0.814h-2.267v6.601h-0.968V73.066z"/>
	<path fill="#787879" d="M81.965,72.33l3.178,7.337h-1.181l-0.768-1.858h-3.563l-0.758,1.858h-1.132l3.124-7.337H81.965z
		 M82.829,76.917l-0.843-2.047c-0.168-0.39-0.293-0.697-0.375-0.921s-0.156-0.463-0.221-0.717c-0.053,0.197-0.117,0.393-0.19,0.588
		s-0.216,0.553-0.427,1.071l-0.811,2.025H82.829z M80.098,70.042h1.095l0.87,1.51h-0.703L80.098,70.042z"/>
	<path fill="#787879" d="M89.197,72.33h1.52c0.52,0,0.93,0.018,1.23,0.054c0.49,0.047,0.947,0.173,1.369,0.379
		c0.424,0.206,0.781,0.468,1.072,0.787c0.293,0.318,0.518,0.687,0.678,1.104c0.158,0.417,0.238,0.874,0.238,1.372
		c0,0.397-0.059,0.778-0.174,1.144c-0.117,0.365-0.281,0.694-0.492,0.986s-0.469,0.546-0.773,0.763s-0.643,0.386-1.016,0.507
		c-0.186,0.064-0.371,0.113-0.559,0.146c-0.186,0.032-0.391,0.057-0.615,0.072c-0.223,0.017-0.492,0.024-0.809,0.024h-1.67V72.33z
		 M90.244,73.232v5.543h0.537c0.484,0,0.852-0.018,1.102-0.054c0.252-0.036,0.504-0.105,0.758-0.209
		c0.318-0.141,0.594-0.334,0.824-0.58c0.23-0.248,0.408-0.537,0.531-0.871c0.125-0.332,0.186-0.688,0.186-1.068
		c0-0.29-0.041-0.573-0.123-0.849s-0.201-0.526-0.355-0.752c-0.152-0.226-0.338-0.423-0.553-0.591s-0.451-0.295-0.709-0.381
		c-0.164-0.064-0.375-0.112-0.631-0.143s-0.596-0.046-1.018-0.046H90.244z"/>
	<path fill="#787879" d="M97.889,72.33v7.337h-1.047V72.33H97.889z"/>
	<path fill="#787879" d="M102.922,72.33h1.453c0.521,0,0.912,0.016,1.168,0.046c0.258,0.03,0.486,0.085,0.688,0.164
		c0.41,0.146,0.734,0.397,0.973,0.754c0.24,0.356,0.359,0.766,0.359,1.228c0,0.308-0.053,0.594-0.158,0.856
		c-0.105,0.264-0.256,0.492-0.451,0.688s-0.428,0.347-0.697,0.454c-0.189,0.071-0.422,0.124-0.697,0.158s-0.613,0.052-1.01,0.052
		h-0.58v2.938h-1.047V72.33z M103.969,73.232v2.604h0.568c0.561,0,1.018-0.092,1.371-0.276s0.531-0.53,0.531-1.039
		c0-0.243-0.055-0.457-0.166-0.642s-0.271-0.33-0.48-0.436s-0.463-0.169-0.764-0.19C104.797,73.239,104.443,73.232,103.969,73.232z"
		/>
	<path fill="#787879" d="M109.859,72.33v7.337h-1.047V72.33H109.859z"/>
	<path fill="#787879" d="M115.27,72.464l-0.129,0.924c-0.523-0.2-0.98-0.301-1.375-0.301c-0.266,0-0.496,0.043-0.695,0.127
		s-0.354,0.202-0.463,0.354s-0.164,0.33-0.164,0.534c0,0.318,0.113,0.563,0.336,0.73c0.225,0.168,0.619,0.398,1.182,0.69
		c0.564,0.292,0.988,0.587,1.271,0.886s0.424,0.695,0.424,1.189c0,0.43-0.104,0.815-0.313,1.155
		c-0.207,0.34-0.502,0.602-0.883,0.784s-0.818,0.273-1.313,0.273c-0.584,0-1.141-0.096-1.672-0.289l0.107-0.988
		c0.541,0.258,1.021,0.387,1.439,0.387c0.299,0,0.563-0.051,0.793-0.15c0.23-0.101,0.408-0.245,0.531-0.433
		c0.125-0.188,0.186-0.409,0.186-0.663c0-0.365-0.123-0.643-0.371-0.83c-0.246-0.188-0.639-0.411-1.176-0.669
		s-0.943-0.525-1.219-0.803s-0.414-0.669-0.414-1.174c0-0.394,0.096-0.742,0.287-1.045s0.465-0.538,0.816-0.706
		c0.354-0.168,0.756-0.252,1.207-0.252C114.232,72.196,114.768,72.285,115.27,72.464z"/>
	<path fill="#787879" d="M120.379,72.33l3.178,7.337h-1.182l-0.768-1.858h-3.563l-0.758,1.858h-1.133l3.125-7.337H120.379z
		 M121.244,76.917L120.4,74.87c-0.168-0.39-0.293-0.697-0.375-0.921s-0.156-0.463-0.221-0.717c-0.053,0.197-0.117,0.393-0.189,0.588
		c-0.074,0.195-0.217,0.553-0.428,1.071l-0.811,2.025H121.244z"/>
</g>
</svg>
