<?xml version="1.0" encoding="utf-8"?>
<!-- Generator: Adobe Illustrator 24.1.0, SVG Export Plug-In . SVG Version: 6.00 Build 0)  -->
<svg version="1.1" id="Livello_1" xmlns="http://www.w3.org/2000/svg" xmlns:xlink="http://www.w3.org/1999/xlink" x="0px" y="0px"
	 viewBox="0 0 1310.9 129.5" style="enable-background:new 0 0 1310.9 129.5;" xml:space="preserve">
<style type="text/css">
	.st0{fill:#FFFFFF;stroke:#FFFFFF;stroke-miterlimit:10;}
	.st1{fill:none;stroke:#9BA36E;stroke-width:0.75;stroke-miterlimit:10;}
	.st2{fill:#FFFFFF;stroke:#FFFFFF;stroke-width:6;stroke-miterlimit:10;}
	.st3{fill:#CAAA56;stroke:#FFFFFF;stroke-width:3.5;stroke-miterlimit:10;}
	.st4{fill:#154F7D;stroke:#154F7D;stroke-width:7;stroke-miterlimit:10;}
	.st5{fill:#FFFFFF;stroke:#FFFFFF;stroke-width:5;stroke-miterlimit:10;}
	.st6{fill:#154F7D;stroke:#FFFFFF;stroke-width:2;stroke-miterlimit:10;}
	.st7{fill:#FFFFFF;stroke:#FFFFFF;stroke-width:3;stroke-miterlimit:10;}
	.st8{fill:#FFFFFF;stroke:#FFFFFF;stroke-width:4;stroke-miterlimit:10;}
	.st9{fill:#7D8341;stroke:#FFFFFF;stroke-width:5;stroke-miterlimit:10;}
	.st10{fill:#CAAA56;stroke:#FFFFFF;stroke-width:3;stroke-miterlimit:10;}
	.st11{fill:#FFFFFF;}
	.st12{fill:#FFFFFF;stroke:#FFFFFF;stroke-width:8;stroke-miterlimit:10;}
	.st13{fill:#721712;stroke:#FFFFFF;stroke-width:4;stroke-miterlimit:10;}
	.st14{fill:#7E7BAF;stroke:#FFFFFF;stroke-width:4;stroke-miterlimit:10;}
	.st15{fill:#72B8B0;stroke:#FFFFFF;stroke-width:6;stroke-miterlimit:10;}
	.st16{fill:none;stroke:#154F7D;stroke-width:7;stroke-miterlimit:10;}
</style>
<g transform="translate(0.000000,151.000000) scale(0.100000,-0.100000)">
</g>
<g>
	<g>
		<path class="st0" d="M433.2,118.4v9.1h-1.1v-9.1H433.2z"/>
		<path class="st0" d="M438,118.4l5.4,7.4h0v-7.4h1.1v9.1h-1.1l-5.5-7.5h0v7.5h-1.1v-9.1H438z"/>
		<path class="st0" d="M451.5,118.4c1.5,0,2.7,0.4,3.4,1.2c0.7,0.8,1.1,1.9,1.1,3.3c0,1.4-0.4,2.5-1.2,3.3c-0.8,0.8-2,1.3-3.5,1.3
			h-3.3v-9.1H451.5z M449.2,126.6h2c1.3,0,2.2-0.3,2.8-0.9c0.6-0.6,0.9-1.5,0.9-2.7c0-1.2-0.3-2.1-0.8-2.7c-0.6-0.6-1.5-0.9-2.8-0.9
			h-2.2V126.6z"/>
		<path class="st0" d="M466,118.4v0.9h-5.7v3h5.4v0.9h-5.4v3.3h5.9v0.9h-7v-9.1H466z"/>
		<path class="st0" d="M470.1,118.4l2.6,3.5l2.6-3.5h1.4l-3.3,4.4l3.6,4.7h-1.4l-2.9-3.9l-2.9,3.9h-1.4l3.5-4.7l-3.3-4.4H470.1z"/>
		<path class="st0" d="M487,118.4l3.6,7.8h0l3.6-7.8h1.4v9.1h-1.1v-7.2h0l-3.3,7.2h-1l-3.3-7.2h0v7.2h-1.1v-9.1H487z"/>
		<path class="st0" d="M505.9,118.4v0.9h-5.7v3h5.4v0.9h-5.4v3.3h5.9v0.9h-7v-9.1H505.9z"/>
		<path class="st0" d="M512.8,118.4c1.5,0,2.7,0.4,3.4,1.2c0.7,0.8,1.1,1.9,1.1,3.3c0,1.4-0.4,2.5-1.2,3.3c-0.8,0.8-2,1.3-3.5,1.3
			h-3.3v-9.1H512.8z M510.4,126.6h2c1.3,0,2.2-0.3,2.8-0.9c0.6-0.6,0.9-1.5,0.9-2.7c0-1.2-0.3-2.1-0.8-2.7c-0.6-0.6-1.5-0.9-2.8-0.9
			h-2.2V126.6z"/>
		<path class="st0" d="M521.6,118.4v9.1h-1.1v-9.1H521.6z"/>
		<path class="st0" d="M526.4,118.4v9.1h-1.1v-9.1H526.4z"/>
		<path class="st0" d="M540.2,118.4l3.8,9.1h-1.2l-1-2.6h-4.4l-1,2.6h-1.2l3.8-9.1H540.2z M541.4,124.1l-1.8-4.6h-0.1l-1.8,4.6
			H541.4z"/>
		<path class="st0" d="M553.4,118.4v0.9h-5.7v3h5.4v0.9h-5.4v3.3h5.9v0.9h-7v-9.1H553.4z"/>
		<path class="st0" d="M557,118.4l3,8h0l3-8h1.2l-3.6,9.1h-1.4l-3.6-9.1H557z"/>
		<path class="st0" d="M568.1,118.4v9.1H567v-9.1H568.1z"/>
		<path class="st0" d="M584.8,119.1c0.7,0.5,1.1,1.3,1.3,2.3H585c-0.1-0.7-0.5-1.2-1-1.6c-0.5-0.4-1.2-0.6-2.1-0.6
			c-1.1,0-1.9,0.3-2.5,1c-0.6,0.7-0.9,1.6-0.9,2.8c0,1.1,0.3,2.1,0.9,2.7c0.6,0.7,1.6,1.1,2.8,1.1c0.5,0,1-0.1,1.5-0.2
			c0.5-0.1,0.9-0.3,1.2-0.5v-2.3h-3v-0.9h4.1v3.7c-0.5,0.4-1,0.6-1.7,0.8c-0.7,0.2-1.4,0.3-2.2,0.3c-1.5,0-2.7-0.5-3.5-1.4
			c-0.8-0.9-1.2-2-1.2-3.3s0.4-2.5,1.2-3.3c0.8-1,1.9-1.4,3.4-1.4C583.1,118.3,584.1,118.5,584.8,119.1z"/>
		<path class="st0" d="M596.3,118.4v0.9h-5.7v3h5.4v0.9h-5.4v3.3h5.9v0.9h-7v-9.1H596.3z"/>
		<path class="st0" d="M607.3,119.6c0.8,0.9,1.2,2,1.2,3.4c0,1.4-0.4,2.5-1.2,3.4c-0.8,0.9-2,1.4-3.4,1.4s-2.6-0.5-3.4-1.4
			c-0.8-0.9-1.2-2-1.2-3.4c0-1.4,0.4-2.5,1.2-3.4c0.8-0.9,2-1.4,3.4-1.4C605.3,118.3,606.5,118.7,607.3,119.6z M601.3,120.3
			c-0.6,0.7-0.9,1.6-0.9,2.7c0,1.1,0.3,2,0.9,2.7c0.6,0.7,1.5,1.1,2.6,1.1s2-0.4,2.6-1c0.6-0.7,0.9-1.6,0.9-2.7
			c0-1.2-0.3-2.1-0.9-2.8c-0.6-0.7-1.5-1-2.6-1C602.8,119.2,601.9,119.5,601.3,120.3z"/>
		<path class="st0" d="M618.6,119.1c0.7,0.5,1.1,1.3,1.3,2.3h-1.1c-0.1-0.7-0.5-1.2-1-1.6c-0.5-0.4-1.2-0.6-2.1-0.6
			c-1.1,0-1.9,0.3-2.5,1c-0.6,0.7-0.9,1.6-0.9,2.8c0,1.1,0.3,2.1,0.9,2.7c0.6,0.7,1.6,1.1,2.8,1.1c0.5,0,1-0.1,1.5-0.2
			c0.5-0.1,0.9-0.3,1.2-0.5v-2.3h-3v-0.9h4.1v3.7c-0.5,0.4-1,0.6-1.7,0.8c-0.7,0.2-1.4,0.3-2.2,0.3c-1.5,0-2.7-0.5-3.5-1.4
			c-0.8-0.9-1.2-2-1.2-3.3s0.4-2.5,1.2-3.3c0.8-1,1.9-1.4,3.4-1.4C616.9,118.3,617.9,118.5,618.6,119.1z"/>
		<path class="st0" d="M627.4,118.4c1,0,1.7,0.2,2.3,0.6c0.6,0.4,0.9,1.1,0.9,1.9c0,0.5-0.1,1-0.4,1.4c-0.3,0.4-0.8,0.7-1.3,0.8v0
			c0.9,0.2,1.4,0.7,1.5,1.7l0.1,1.4c0.1,0.6,0.2,1,0.5,1.3h-1.2c-0.2-0.3-0.4-0.7-0.4-1.2l-0.1-1.2c-0.1-0.5-0.3-0.9-0.6-1.2
			c-0.3-0.2-0.8-0.3-1.4-0.3h-2.9v3.9h-1.1v-9.1H627.4z M624.4,122.7h2.9c0.7,0,1.3-0.2,1.6-0.5c0.3-0.3,0.5-0.7,0.5-1.2
			c0-0.6-0.2-1-0.5-1.3c-0.4-0.3-0.9-0.4-1.6-0.4h-2.9V122.7z"/>
		<path class="st0" d="M638.1,118.4l3.8,9.1h-1.2l-1-2.6h-4.4l-1,2.6H633l3.8-9.1H638.1z M639.3,124.1l-1.8-4.6h-0.1l-1.8,4.6H639.3
			z"/>
		<path class="st0" d="M648.4,118.4c2.2,0,3.3,0.9,3.3,2.7c0,1.8-1.1,2.7-3.3,2.7h-2.8v3.7h-1.1v-9.1H648.4z M645.6,122.9h2.8
			c0.8,0,1.3-0.2,1.7-0.4c0.4-0.3,0.6-0.7,0.6-1.4s-0.2-1.1-0.6-1.3c-0.4-0.3-0.9-0.4-1.7-0.4h-2.8V122.9z"/>
		<path class="st0" d="M655.8,118.4v4h5.6v-4h1.1v9.1h-1.1v-4.2h-5.6v4.2h-1.1v-9.1H655.8z"/>
		<path class="st0" d="M667.2,118.4v9.1h-1.1v-9.1H667.2z"/>
		<path class="st0" d="M674.9,118.4l3.8,9.1h-1.2l-1-2.6H672l-1,2.6h-1.2l3.8-9.1H674.9z M676.1,124.1l-1.8-4.6h-0.1l-1.8,4.6H676.1
			z"/>
		<path class="st0" d="M688.1,118.4v0.9h-5.7v3h5.4v0.9h-5.4v3.3h5.9v0.9h-7v-9.1H688.1z"/>
		<path class="st0" d="M705.1,119.6c0.8,0.9,1.2,2,1.2,3.4c0,1.4-0.4,2.5-1.2,3.4c-0.8,0.9-2,1.4-3.4,1.4s-2.6-0.5-3.4-1.4
			c-0.8-0.9-1.2-2-1.2-3.4c0-1.4,0.4-2.5,1.2-3.4c0.8-0.9,2-1.4,3.4-1.4C703.1,118.3,704.3,118.7,705.1,119.6z M699.1,120.3
			c-0.6,0.7-0.9,1.6-0.9,2.7c0,1.1,0.3,2,0.9,2.7c0.6,0.7,1.5,1.1,2.6,1.1c1.1,0,2-0.4,2.6-1c0.6-0.7,0.9-1.6,0.9-2.7
			c0-1.2-0.3-2.1-0.9-2.8c-0.6-0.7-1.5-1-2.6-1S699.7,119.5,699.1,120.3z"/>
		<path class="st0" d="M713.4,118.4c2.2,0,3.3,0.9,3.3,2.7c0,1.8-1.1,2.7-3.3,2.7h-2.8v3.7h-1.1v-9.1H713.4z M710.6,122.9h2.8
			c0.8,0,1.3-0.2,1.7-0.4c0.4-0.3,0.6-0.7,0.6-1.4s-0.2-1.1-0.6-1.3c-0.4-0.3-0.9-0.4-1.7-0.4h-2.8V122.9z"/>
		<path class="st0" d="M726.5,118.4v0.9h-5.7v3h5.4v0.9h-5.4v3.3h5.9v0.9h-7v-9.1H726.5z"/>
		<path class="st0" d="M734,118.4c1,0,1.7,0.2,2.3,0.6c0.6,0.4,0.9,1.1,0.9,1.9c0,0.5-0.1,1-0.4,1.4c-0.3,0.4-0.8,0.7-1.3,0.8v0
			c0.9,0.2,1.4,0.7,1.5,1.7l0.1,1.4c0.1,0.6,0.2,1,0.5,1.3h-1.2c-0.2-0.3-0.4-0.7-0.4-1.2l-0.1-1.2c-0.1-0.5-0.3-0.9-0.6-1.2
			c-0.3-0.2-0.8-0.3-1.4-0.3H731v3.9h-1.1v-9.1H734z M731,122.7h2.9c0.7,0,1.3-0.2,1.6-0.5c0.3-0.3,0.5-0.7,0.5-1.2
			c0-0.6-0.2-1-0.5-1.3c-0.4-0.3-0.9-0.4-1.6-0.4H731V122.7z"/>
		<path class="st0" d="M741.7,118.4v5.6c0,0.9,0.2,1.6,0.6,2c0.4,0.5,1.1,0.7,2.1,0.7c0.9,0,1.6-0.2,2.1-0.7c0.4-0.5,0.6-1.1,0.6-2
			v-5.6h1.1v5.6c0,1.2-0.3,2.1-1,2.7c-0.7,0.6-1.6,1-2.9,1c-1.3,0-2.2-0.3-2.9-0.9c-0.6-0.6-1-1.5-1-2.7v-5.6H741.7z"/>
		<path class="st0" d="M753.2,118.4l3.6,7.8h0l3.6-7.8h1.4v9.1h-1.1v-7.2h0l-3.3,7.2h-1l-3.3-7.2h0v7.2h-1.1v-9.1H753.2z"/>
	</g>
	<g>
		<path class="st1" d="M874.1,101.5"/>
		<line class="st2" x1="830.3" y1="40.3" x2="855.9" y2="21.9"/>
		<circle class="st3" cx="864.1" cy="15.2" r="11.7"/>
		<path class="st4" d="M774.7,112.1"/>
		<line class="st5" x1="828.3" y1="92.6" x2="838.8" y2="105.5"/>
		<circle class="st6" cx="837.6" cy="103.7" r="8"/>
		<line class="st7" x1="838.2" y1="64.2" x2="863.1" y2="64.2"/>
		<line class="st8" x1="791.7" y1="96.3" x2="780.1" y2="115.4"/>
		<circle class="st9" cx="777.7" cy="119.9" r="6.9"/>
		<line class="st10" x1="806.7" y1="26.9" x2="806.7" y2="16.4"/>
		<circle class="st7" cx="806.7" cy="14.3" r="4.6"/>
		<line class="st5" x1="774.2" y1="76.8" x2="740.7" y2="90.7"/>
		<path class="st11" d="M767.4,64.2c0-7.4,1.6-14,4.9-19.9c3.3-5.9,7.8-10.5,13.6-13.8s12.4-5,19.7-5c7.7,0,14.4,1.7,20.2,5
			c5.8,3.3,10.2,7.9,13.4,13.8c3.1,5.9,4.7,12.5,4.7,20c0,7.3-1.6,13.9-4.9,19.8c-3.2,5.9-7.7,10.4-13.5,13.8
			c-5.8,3.3-12.3,5-19.6,5c-7.8,0-14.6-1.6-20.4-4.9c-5.8-3.3-10.3-7.9-13.4-13.7C769,78.2,767.4,71.6,767.4,64.2z M837.9,64.2
			c0-7.1-1.4-13.3-4.3-18.4c-2.9-5.2-6.7-9.1-11.6-11.8c-4.9-2.7-10.3-4-16.4-4c-5.9,0-11.3,1.3-16.3,4c-4.9,2.7-8.8,6.6-11.7,11.8
			c-2.9,5.2-4.3,11.3-4.3,18.4c0,7.2,1.4,13.4,4.3,18.5c2.9,5.1,6.8,9,11.8,11.6c4.9,2.6,10.4,3.9,16.5,3.9c5.9,0,11.3-1.3,16.1-3.9
			c4.8-2.6,8.7-6.5,11.5-11.6C836.4,77.5,837.9,71.4,837.9,64.2z"/>
		<line class="st12" x1="775.4" y1="40.3" x2="757.9" y2="26.6"/>
		<circle class="st13" cx="756.5" cy="24.8" r="10.1"/>
		<circle class="st14" cx="751.4" cy="86.2" r="10.1"/>
		<circle class="st15" cx="869.5" cy="63.7" r="12.3"/>
	</g>
	<g>
		<line class="st7" x1="435.6" y1="64.9" x2="767.9" y2="64.9"/>
		<g>
			<path class="st11" d="M431,26.3h5.5v74.3H431V26.3z"/>
			<path class="st11" d="M477.1,26.3l25.3,51.9l7.6,16.6h0.3l32.5-68.5h8.6v74.3h-5.4V66.3c0-11.1,0.3-22.9,0.9-35.4h-0.5
				c-6.3,12.3-10.1,20.1-11.6,23.2l-21.8,46.6h-5.4l-22.4-46.6c-1.1-2.3-5-10-11.7-23.2h-0.4c0.6,15.8,0.9,27.6,0.9,35.4v34.4h-5.5
				V26.3H477.1z"/>
			<path class="st11" d="M614.8,26.3h-5.4l-34.5,74.3h6.1l11.8-26c0-0.1,0-0.1,0.1-0.2h-0.1c0,0,0.1,0,0.1,0
				c0.2-0.5,0.5-1.1,0.7-1.6c0.3-0.8,0.7-1.6,1-2.4c-0.1,0.1,0.4-0.9,0.4-1c4.5-9.8,7.3-16,8.6-18.5c3.9-8.3,6.8-14.6,8.5-18.8h0.3
				c1.9,4.6,6,13.8,12.2,27.6c0.8,1.3,1.9,4.1,2.6,5.7l1.1,2.4c0.8,1.6,1.5,3.3,2.3,4.9c-0.2-0.3,1,2.3,1,2.3h0l11.8,25.7h6.1
				L614.8,26.3z"/>
			<path class="st11" d="M729.1,64v31.5c-5.7,1.5-10.9,2.3-15.5,2.3c-12.4,0-22-2.9-28.7-8.8c-6.8-5.9-10.1-14.1-10.1-24.8
				c0-7.6,1.8-14,5.5-19.2c3.6-5.2,8.4-9.1,14.3-11.7c5.9-2.6,12.3-3.8,19.2-3.8c2.9,0,6.1,0.3,9.5,0.8c3.4,0.6,6.2,1.2,8.3,1.9
				v-4.8c-1.3-0.6-3.6-1.2-6.8-1.8c-3.2-0.6-6.6-0.8-10.3-0.8c-8.8,0-16.6,1.6-23.5,4.8c-6.9,3.2-12.3,7.9-16.3,14
				c-3.9,6.1-5.9,13.2-5.9,21.5c0,11.5,3.9,20.6,11.6,27.1c7.8,6.5,18.5,9.8,32.1,9.8c4.5,0,9-0.4,13.5-1.1c4.5-0.8,7.3-1.6,8.6-2.5
				V64C732.9,64,731,64,729.1,64z"/>
		</g>
		<path class="st16" d="M635.7,63.7"/>
	</g>
</g>
</svg>
