<?xml version="1.0" encoding="utf-8"?>
<!-- Generator: Adobe Illustrator 24.1.0, SVG Export Plug-In . SVG Version: 6.00 Build 0)  -->
<svg version="1.1" xmlns="http://www.w3.org/2000/svg" xmlns:xlink="http://www.w3.org/1999/xlink" x="0px" y="0px"
	 viewBox="0 0 740 248" style="enable-background:new 0 0 740 248;" xml:space="preserve">
<style type="text/css">
	.st0{display:none;fill:none;stroke:#333333;stroke-width:4;stroke-miterlimit:10;}
	.st1{display:none;}
	.st2{display:inline;fill:none;stroke:#9AA26D;stroke-width:0.75;stroke-miterlimit:10;}
	.st3{display:inline;fill:#154E7C;stroke:#154E7C;stroke-width:6;stroke-miterlimit:10;}
	.st4{display:inline;fill:#C9AA55;stroke:#144E7D;stroke-width:3;stroke-miterlimit:10;}
	.st5{display:inline;fill:#154E7C;stroke:#154E7C;stroke-width:7;stroke-miterlimit:10;}
	.st6{display:inline;fill:#154E7C;stroke:#154E7C;stroke-width:5;stroke-miterlimit:10;}
	.st7{display:inline;fill:#154E7C;}
	.st8{display:inline;fill:#154E7C;stroke:#154E7C;stroke-width:4;stroke-miterlimit:10;}
	.st9{display:inline;fill:#7C8241;stroke:#154E7C;stroke-width:5;stroke-miterlimit:10;}
	.st10{display:inline;fill:#FFFFFF;stroke:#144E7D;stroke-width:3;stroke-miterlimit:10;}
	.st11{display:inline;fill:#154E7C;stroke:#154E7C;stroke-width:8;stroke-miterlimit:10;}
	.st12{display:inline;fill:#721711;stroke:#154E7C;stroke-width:4;stroke-miterlimit:10;}
	.st13{display:inline;fill:#72B8B0;stroke:#154E7C;stroke-width:8;stroke-miterlimit:10;}
	.st14{display:inline;fill:#FFFFFF;stroke:#154E7C;stroke-width:5;stroke-miterlimit:10;}
	.st15{display:inline;fill:#FFFFFF;stroke:#FFFFFF;stroke-width:7;stroke-miterlimit:10;}
	.st16{display:inline;fill:#FFFFFF;}
	.st17{display:inline;fill:#FFFFFF;stroke:#FFFFFF;stroke-width:8;stroke-miterlimit:10;}
	.st18{display:inline;fill:#7E7BAF;stroke:#154E7C;stroke-width:4;stroke-miterlimit:10;}
	.st19{display:inline;fill:none;stroke:#154E7C;stroke-width:7;stroke-miterlimit:10;}
	.st20{fill:#FFFFFF;stroke:#FFFFFF;stroke-miterlimit:10;}
	.st21{fill:none;stroke:#9AA26D;stroke-width:0.75;stroke-miterlimit:10;}
	.st22{fill:#FFFFFF;stroke:#FFFFFF;stroke-width:6;stroke-miterlimit:10;}
	.st23{fill:#C9AA55;stroke:#FFFFFF;stroke-width:3.5;stroke-miterlimit:10;}
	.st24{fill:#154E7C;stroke:#154E7C;stroke-width:7;stroke-miterlimit:10;}
	.st25{fill:#FFFFFF;stroke:#FFFFFF;stroke-width:5;stroke-miterlimit:10;}
	.st26{fill:#154E7C;stroke:#FFFFFF;stroke-width:2;stroke-miterlimit:10;}
	.st27{fill:#FFFFFF;stroke:#FFFFFF;stroke-width:7;stroke-miterlimit:10;}
	.st28{fill:#FFFFFF;stroke:#FFFFFF;stroke-width:4;stroke-miterlimit:10;}
	.st29{fill:#7C8241;stroke:#FFFFFF;stroke-width:5;stroke-miterlimit:10;}
	.st30{fill:#C9AA55;stroke:#FFFFFF;stroke-width:3;stroke-miterlimit:10;}
	.st31{fill:#FFFFFF;stroke:#FFFFFF;stroke-width:3;stroke-miterlimit:10;}
	.st32{fill:#FFFFFF;}
	.st33{fill:#FFFFFF;stroke:#FFFFFF;stroke-width:8;stroke-miterlimit:10;}
	.st34{fill:#721711;stroke:#FFFFFF;stroke-width:4;stroke-miterlimit:10;}
	.st35{fill:#7E7BAF;stroke:#FFFFFF;stroke-width:4;stroke-miterlimit:10;}
	.st36{fill:#72B8B0;stroke:#FFFFFF;stroke-width:6;stroke-miterlimit:10;}
	.st37{fill:none;stroke:#154E7C;stroke-width:7;stroke-miterlimit:10;}
</style>
<g id="Livello_3">
</g>
<g id="Livello_1">
	<polyline class="st0" points="229,65 591.6,65 646.4,118.1 	"/>
	<g class="st1">
		<path class="st2" d="M734,602.9"/>
		<line class="st3" x1="662.7" y1="503.4" x2="704.3" y2="473.4"/>
		<circle class="st4" cx="717.7" cy="462.6" r="19"/>
		<path class="st5" d="M584.5,609.5"/>
		<line class="st6" x1="659.5" y1="588.5" x2="676.6" y2="609.4"/>
		<circle class="st7" cx="674.5" cy="606.5" r="13"/>
		<line class="st5" x1="675.5" y1="542.2" x2="716" y2="542.2"/>
		<line class="st8" x1="594.2" y1="595.3" x2="581.2" y2="612.3"/>
		<circle class="st9" cx="574.8" cy="620.8" r="11.2"/>
		<line class="st4" x1="624.2" y1="481.5" x2="624.2" y2="464.5"/>
		<circle class="st10" cx="624.2" cy="461" r="7.5"/>
		<line class="st5" x1="285" y1="542.2" x2="564" y2="542.2"/>
		<path class="st7" d="M18.2,481.7h9v121h-9V481.7z"/>
		<path class="st7" d="M93.3,481.7l41.2,84.5l12.4,27.1h0.4l52.9-111.6h14.1v121h-8.8v-55.9c0-18.1,0.5-37.3,1.4-57.6h-0.8
			c-10.2,20.1-16.5,32.7-18.9,37.7l-35.5,75.8H143l-36.4-75.8c-1.8-3.7-8.1-16.3-19.1-37.7h-0.6c1,25.6,1.4,44.9,1.4,57.6v55.9h-9
			v-121H93.3z"/>
		<path class="st7" d="M317.3,481.7h-8.8l-56.1,121h9.8l19.3-42.3c0-0.1,0.1-0.2,0.1-0.3h-0.1c0,0,0.1,0,0.1,0
			c0.4-0.9,0.7-1.8,1.1-2.7c0.6-1.3,1.1-2.6,1.7-3.9c-0.1,0.2,0.6-1.5,0.7-1.6c7.3-16,12-26,13.9-30.2c6.4-13.6,11-23.8,13.9-30.7
			h0.4c3.1,7.6,9.7,22.5,19.9,44.9c1.3,2.1,3.1,6.6,4.2,9.3l1.8,3.9c1.3,2.6,2.5,5.3,3.8,8c-0.3-0.5,1.6,3.7,1.7,3.7h0l19.1,41.8h10
			L317.3,481.7z"/>
		<path class="st7" d="M503.4,543v51.3c-9.3,2.5-17.7,3.7-25.2,3.7c-20.2,0-35.8-4.8-46.8-14.3c-11-9.6-16.5-23-16.5-40.3
			c0-12.4,3-22.8,8.9-31.3c5.9-8.5,13.7-14.8,23.3-19c9.6-4.2,20.1-6.2,31.3-6.2c4.8,0,10,0.5,15.5,1.4c5.5,0.9,10.1,1.9,13.5,3.1
			v-7.8c-2.2-1-5.9-2-11-2.9c-5.2-0.9-10.8-1.4-16.8-1.4c-14.3,0-27.1,2.6-38.3,7.9c-11.3,5.2-20.1,12.8-26.5,22.7
			c-6.4,9.9-9.6,21.6-9.6,35c0,18.8,6.3,33.5,18.9,44.1c12.6,10.6,30,16,52.3,16c7.4,0,14.7-0.6,22-1.9c7.3-1.2,12-2.6,14-4.1V543
			C509.7,543,506.6,543,503.4,543z"/>
		<path class="st7" d="M560.3,542.2c0-12,2.6-22.8,8-32.4c5.3-9.6,12.7-17.1,22.1-22.5c9.4-5.4,20.1-8.1,32.1-8.1
			c12.5,0,23.5,2.7,32.9,8.1c9.4,5.4,16.7,12.9,21.7,22.4c5.1,9.5,7.6,20.4,7.6,32.5c0,11.9-2.6,22.7-7.9,32.2
			c-5.3,9.5-12.6,17-22,22.4c-9.4,5.4-20,8.1-31.9,8.1c-12.7,0-23.7-2.7-33.2-8.1c-9.5-5.4-16.8-12.8-21.9-22.3
			C562.8,565,560.3,554.3,560.3,542.2z M675,542.2c0-11.6-2.3-21.6-7-30c-4.7-8.4-11-14.8-18.9-19.2c-8-4.4-16.8-6.6-26.6-6.6
			c-9.6,0-18.5,2.2-26.5,6.6c-8,4.4-14.3,10.8-19,19.2c-4.7,8.4-7,18.4-7,30c0,11.7,2.4,21.7,7.1,30.1c4.7,8.4,11.1,14.7,19.1,19
			c8,4.3,17,6.4,26.8,6.4c9.6,0,18.4-2.1,26.3-6.4c7.9-4.3,14.1-10.6,18.8-19C672.6,563.9,675,553.9,675,542.2z"/>
		<line class="st11" x1="573.7" y1="507.5" x2="540.3" y2="493.5"/>
		<circle class="st12" cx="535" cy="490" r="16.5"/>
		<circle class="st13" cx="726.5" cy="541.5" r="20"/>
	</g>
	<g class="st1">
		
			<text transform="matrix(1.0094 0 0 1 -778.9976 295.9258)" style="display:inline;fill:#7C8241; font-family:'PingFangHK-Semibold-B5pc-H'; font-size:24px; letter-spacing:1;">INDEX MEDII AEVI GEOGRAPHIAE OPERUM</text>
		
			<text transform="matrix(1.11 0 0 1 -783.8291 263.1611)" class="st7" style="font-family:'ImprintMT-Shadow'; font-size:120px; letter-spacing:18.9;">IMAGO</text>
	</g>
	<g class="st1">
		<path class="st2" d="M482,90.9"/>
		<line class="st3" x1="410.7" y1="-8.6" x2="452.3" y2="-38.6"/>
		<circle class="st4" cx="465.7" cy="-49.4" r="19"/>
		<path class="st5" d="M320.2,108.3"/>
		<line class="st6" x1="407.5" y1="76.5" x2="424.6" y2="97.4"/>
		<circle class="st7" cx="422.5" cy="94.5" r="13"/>
		<line class="st5" x1="423.5" y1="30.2" x2="464" y2="30.2"/>
		<line class="st8" x1="339" y1="79" x2="320.1" y2="110"/>
		<circle class="st9" cx="314.5" cy="119.1" r="11.2"/>
		<line class="st4" x1="372.2" y1="-30.5" x2="372.2" y2="-47.5"/>
		<circle class="st10" cx="372.2" cy="-51" r="7.5"/>
		<line class="st14" x1="44" y1="242.2" x2="585" y2="242.2"/>
		<line class="st15" x1="313.8" y1="43.4" x2="256.1" y2="55.9"/>
		<path class="st16" d="M39.2,181.7h9v121h-9V181.7z"/>
		<path class="st16" d="M114.3,181.7l41.2,84.5l12.4,27.1h0.4l52.9-111.6h14.1v121h-8.8v-55.9c0-18.1,0.5-37.3,1.4-57.6h-0.8
			c-10.2,20.1-16.5,32.7-18.9,37.7l-35.5,75.8H164l-36.4-75.8c-1.8-3.7-8.1-16.3-19.1-37.7h-0.6c1,25.6,1.4,44.9,1.4,57.6v55.9h-9
			v-121H114.3z"/>
		<path class="st16" d="M338.3,181.7h-8.8l-56.1,121h9.8l19.3-42.3c0-0.1,0.1-0.2,0.1-0.3h-0.1c0,0,0.1,0,0.1,0
			c0.4-0.9,0.7-1.8,1.1-2.7c0.6-1.3,1.1-2.6,1.7-3.9c-0.1,0.2,0.6-1.5,0.7-1.6c7.3-16,12-26,13.9-30.2c6.4-13.6,11-23.8,13.9-30.7
			h0.4c3.1,7.6,9.7,22.5,19.9,44.9c1.3,2.1,3.1,6.6,4.2,9.3l1.8,3.9c1.3,2.6,2.5,5.3,3.8,8c-0.3-0.5,1.6,3.7,1.7,3.7h0l19.1,41.8h10
			L338.3,181.7z"/>
		<path class="st16" d="M524.4,243v51.3c-9.3,2.5-17.7,3.7-25.2,3.7c-20.2,0-35.8-4.8-46.8-14.3c-11-9.6-16.5-23-16.5-40.3
			c0-12.4,3-22.8,8.9-31.3c5.9-8.5,13.7-14.8,23.3-19c9.6-4.2,20.1-6.2,31.3-6.2c4.8,0,10,0.5,15.5,1.4c5.5,0.9,10.1,1.9,13.5,3.1
			v-7.8c-2.2-1-5.9-2-11-2.9c-5.2-0.9-10.8-1.4-16.8-1.4c-14.3,0-27.1,2.6-38.3,7.9c-11.3,5.2-20.1,12.8-26.5,22.7
			c-6.4,9.9-9.6,21.6-9.6,35c0,18.8,6.3,33.5,18.9,44.1c12.6,10.6,30,16,52.3,16c7.4,0,14.7-0.6,22-1.9c7.3-1.2,12-2.6,14-4.1V243
			C530.7,243,527.6,243,524.4,243z"/>
		<path class="st16" d="M581.3,242.2c0-12,2.6-22.8,8-32.4c5.3-9.6,12.7-17.1,22.1-22.5c9.4-5.4,20.1-8.1,32.1-8.1
			c12.5,0,23.5,2.7,32.9,8.1c9.4,5.4,16.7,12.9,21.7,22.4c5.1,9.5,7.6,20.4,7.6,32.5c0,11.9-2.6,22.7-7.9,32.2
			c-5.3,9.5-12.6,17-22,22.4c-9.4,5.4-20,8.1-31.9,8.1c-12.7,0-23.7-2.7-33.2-8.1c-9.5-5.4-16.8-12.8-21.9-22.3
			C583.8,265,581.3,254.3,581.3,242.2z M696,242.2c0-11.6-2.3-21.6-7-30c-4.7-8.4-11-14.8-18.9-19.2c-8-4.4-16.8-6.6-26.6-6.6
			c-9.6,0-18.5,2.2-26.5,6.6c-8,4.4-14.3,10.8-19,19.2c-4.7,8.4-7,18.4-7,30c0,11.7,2.4,21.7,7.1,30.1c4.7,8.4,11.1,14.7,19.1,19
			c8,4.3,17,6.4,26.8,6.4c9.6,0,18.4-2.1,26.3-6.4c7.9-4.3,14.1-10.6,18.8-19C693.6,263.9,696,253.9,696,242.2z"/>
		
			<text transform="matrix(1.0094 0 0 1 36.0024 350.9258)" style="display:inline;fill:#7C8241; font-family:'PingFangHK-Regular-B5pc-H'; font-size:27px; letter-spacing:3;">INDEX MEDII AEVI GEOGRAPHIAE OPERUM</text>
		<path class="st16" d="M308.3,30.2c0-12,2.6-22.8,8-32.4c5.3-9.6,12.7-17.1,22.1-22.5c9.4-5.4,20.1-8.1,32.1-8.1
			c12.5,0,23.5,2.7,32.9,8.1c9.4,5.4,16.7,12.9,21.7,22.4c5.1,9.5,7.6,20.4,7.6,32.5c0,11.9-2.6,22.7-7.9,32.2
			c-5.3,9.5-12.6,17-22,22.4c-9.4,5.4-20,8.1-31.9,8.1c-12.7,0-23.7-2.7-33.2-8.1c-9.5-5.4-16.8-12.8-21.9-22.3
			C310.8,53,308.3,42.3,308.3,30.2z M423,30.2c0-11.6-2.3-21.6-7-30c-4.7-8.4-11-14.8-18.9-19.2c-8-4.4-16.8-6.6-26.6-6.6
			c-9.6,0-18.5,2.2-26.5,6.6c-8,4.4-14.3,10.8-19,19.2c-4.7,8.4-7,18.4-7,30c0,11.7,2.4,21.7,7.1,30.1c4.7,8.4,11.1,14.7,19.1,19
			c8,4.3,17,6.4,26.8,6.4c9.6,0,18.4-2.1,26.3-6.4c7.9-4.3,14.1-10.6,18.8-19C420.6,51.9,423,41.9,423,30.2z"/>
		<line class="st17" x1="321.3" y1="-8.7" x2="292.8" y2="-31"/>
		<circle class="st12" cx="290.6" cy="-33.8" r="16.5"/>
		<circle class="st18" cx="255.6" cy="57.2" r="16.5"/>
		<circle class="st13" cx="474.5" cy="29.5" r="20"/>
		<path class="st19" d="M306.5,242.5"/>
	</g>
	<g>
		<path class="st20" d="M183.9,230.9v10.9h-1.2v-10.9H183.9z"/>
		<path class="st20" d="M189.3,230.9l6.1,8.8h0v-8.8h1.2v10.9h-1.3l-6.1-8.9h0v8.9H188v-10.9H189.3z"/>
		<path class="st20" d="M204.4,230.9c1.7,0,3,0.5,3.8,1.5c0.8,0.9,1.2,2.2,1.2,3.9c0,1.7-0.4,3-1.3,3.9c-0.9,1-2.2,1.5-3.9,1.5h-3.7
			v-10.9H204.4z M201.8,240.7h2.3c1.4,0,2.4-0.4,3.2-1.1c0.7-0.7,1-1.8,1-3.2c0-1.5-0.3-2.5-0.9-3.2c-0.7-0.7-1.7-1.1-3.1-1.1h-2.4
			V240.7z"/>
		<path class="st20" d="M220.5,230.9v1.1h-6.4v3.6h6v1.1h-6v4h6.6v1.1h-7.9v-10.9H220.5z"/>
		<path class="st20" d="M225.1,230.9l2.9,4.2l2.9-4.2h1.5l-3.7,5.2l4,5.6h-1.5l-3.2-4.7l-3.2,4.7h-1.5l3.9-5.6l-3.7-5.2H225.1z"/>
		<path class="st20" d="M243.9,230.9l4,9.3h0l4-9.3h1.5v10.9h-1.2v-8.6h0l-3.7,8.6h-1.1l-3.7-8.6h0v8.6h-1.2v-10.9H243.9z"/>
		<path class="st20" d="M265,230.9v1.1h-6.4v3.6h6v1.1h-6v4h6.6v1.1h-7.9v-10.9H265z"/>
		<path class="st20" d="M272.6,230.9c1.7,0,3,0.5,3.8,1.5c0.8,0.9,1.2,2.2,1.2,3.9c0,1.7-0.4,3-1.3,3.9c-0.9,1-2.2,1.5-3.9,1.5h-3.7
			v-10.9H272.6z M270,240.7h2.3c1.4,0,2.4-0.4,3.2-1.1c0.7-0.7,1-1.8,1-3.2c0-1.5-0.3-2.5-0.9-3.2c-0.7-0.7-1.7-1.1-3.1-1.1H270
			V240.7z"/>
		<path class="st20" d="M282.5,230.9v10.9h-1.2v-10.9H282.5z"/>
		<path class="st20" d="M287.8,230.9v10.9h-1.2v-10.9H287.8z"/>
		<path class="st20" d="M303.2,230.9l4.2,10.9h-1.3l-1.1-3H300l-1.1,3h-1.3l4.2-10.9H303.2z M304.6,237.7l-2-5.4h-0.1l-2.1,5.4
			H304.6z"/>
		<path class="st20" d="M317.9,230.9v1.1h-6.4v3.6h6v1.1h-6v4h6.6v1.1h-7.9v-10.9H317.9z"/>
		<path class="st20" d="M322,230.9l3.3,9.5h0l3.3-9.5h1.4l-4,10.9h-1.5l-4-10.9H322z"/>
		<path class="st20" d="M334.3,230.9v10.9h-1.2v-10.9H334.3z"/>
		<path class="st20" d="M352.9,231.7c0.8,0.6,1.2,1.5,1.4,2.7h-1.2c-0.2-0.8-0.5-1.4-1.1-1.9c-0.6-0.5-1.4-0.7-2.3-0.7
			c-1.2,0-2.1,0.4-2.8,1.2c-0.7,0.8-1,1.9-1,3.3c0,1.4,0.3,2.4,1,3.2c0.7,0.8,1.8,1.3,3.2,1.3c0.6,0,1.1-0.1,1.7-0.2
			c0.5-0.2,1-0.4,1.4-0.6v-2.8h-3.4v-1.1h4.6v4.4c-0.5,0.4-1.1,0.7-1.9,1c-0.8,0.2-1.6,0.4-2.5,0.4c-1.7,0-3-0.5-3.9-1.6
			c-0.9-1-1.3-2.3-1.3-4c0-1.6,0.4-2.9,1.3-4c0.9-1.1,2.2-1.7,3.7-1.7C351.1,230.7,352.1,231,352.9,231.7z"/>
		<path class="st20" d="M365.8,230.9v1.1h-6.4v3.6h6v1.1h-6v4h6.6v1.1h-7.9v-10.9H365.8z"/>
		<path class="st20" d="M378,232.3c0.9,1,1.3,2.4,1.3,4c0,1.6-0.5,3-1.3,4c-0.9,1.1-2.2,1.6-3.8,1.6c-1.6,0-2.9-0.5-3.8-1.6
			c-0.9-1-1.3-2.4-1.3-4c0-1.6,0.4-3,1.3-4c0.9-1.1,2.2-1.6,3.8-1.6C375.8,230.7,377.1,231.2,378,232.3z M371.3,233.1
			c-0.7,0.8-1,1.9-1,3.3c0,1.3,0.3,2.4,1,3.2c0.7,0.9,1.7,1.3,2.9,1.3s2.2-0.4,2.9-1.2c0.7-0.8,1-1.9,1-3.3c0-1.4-0.3-2.5-1-3.3
			c-0.7-0.8-1.7-1.2-2.9-1.2S372,232.3,371.3,233.1z"/>
		<path class="st20" d="M390.6,231.7c0.8,0.6,1.2,1.5,1.4,2.7h-1.2c-0.2-0.8-0.5-1.4-1.1-1.9c-0.6-0.5-1.4-0.7-2.3-0.7
			c-1.2,0-2.1,0.4-2.8,1.2c-0.7,0.8-1,1.9-1,3.3c0,1.4,0.3,2.4,1,3.2c0.7,0.8,1.8,1.3,3.2,1.3c0.6,0,1.1-0.1,1.7-0.2
			c0.5-0.2,1-0.4,1.4-0.6v-2.8h-3.4v-1.1h4.6v4.4c-0.5,0.4-1.1,0.7-1.9,1c-0.8,0.2-1.6,0.4-2.5,0.4c-1.7,0-3-0.5-3.9-1.6
			c-0.9-1-1.3-2.3-1.3-4c0-1.6,0.4-2.9,1.3-4c0.9-1.1,2.2-1.7,3.7-1.7C388.7,230.7,389.8,231,390.6,231.7z"/>
		<path class="st20" d="M400.5,230.9c1.1,0,1.9,0.2,2.5,0.7c0.6,0.5,1,1.3,1,2.3c0,0.6-0.2,1.1-0.5,1.6c-0.4,0.5-0.8,0.8-1.5,0.9v0
			c1,0.2,1.6,0.9,1.7,2l0.2,1.7c0.1,0.7,0.3,1.2,0.6,1.6h-1.3c-0.2-0.4-0.4-0.8-0.4-1.4l-0.1-1.4c-0.1-0.6-0.3-1.1-0.7-1.4
			c-0.4-0.3-0.9-0.4-1.5-0.4h-3.2v4.7h-1.2v-10.9H400.5z M397.1,236h3.2c0.8,0,1.4-0.2,1.8-0.6c0.4-0.3,0.6-0.8,0.6-1.5
			c0-0.7-0.2-1.2-0.6-1.5c-0.4-0.3-1-0.5-1.8-0.5h-3.2V236z"/>
		<path class="st20" d="M412.3,230.9l4.2,10.9h-1.3l-1.1-3h-4.9l-1.1,3h-1.3l4.2-10.9H412.3z M413.7,237.7l-2-5.4h-0.1l-2.1,5.4
			H413.7z"/>
		<path class="st20" d="M423.8,230.9c2.5,0,3.7,1.1,3.7,3.2c0,2.1-1.2,3.2-3.7,3.2h-3.1v4.4h-1.2v-10.9H423.8z M420.7,236.3h3.1
			c0.9,0,1.5-0.2,1.9-0.5c0.4-0.3,0.6-0.9,0.6-1.6c0-0.7-0.2-1.3-0.6-1.6c-0.4-0.4-1.1-0.5-1.9-0.5h-3.1V236.3z"/>
		<path class="st20" d="M432.1,230.9v4.7h6.2v-4.7h1.2v10.9h-1.2v-5.1h-6.2v5.1h-1.2v-10.9H432.1z"/>
		<path class="st20" d="M444.7,230.9v10.9h-1.2v-10.9H444.7z"/>
		<path class="st20" d="M453.3,230.9l4.2,10.9h-1.3l-1.1-3h-4.9l-1.1,3h-1.3l4.2-10.9H453.3z M454.7,237.7l-2-5.4h-0.1l-2.1,5.4
			H454.7z"/>
		<path class="st20" d="M468,230.9v1.1h-6.4v3.6h6v1.1h-6v4h6.6v1.1h-7.9v-10.9H468z"/>
		<path class="st20" d="M487.1,232.3c0.9,1,1.3,2.4,1.3,4c0,1.6-0.5,3-1.3,4c-0.9,1.1-2.2,1.6-3.8,1.6c-1.6,0-2.9-0.5-3.8-1.6
			c-0.9-1-1.3-2.4-1.3-4c0-1.6,0.4-3,1.3-4c0.9-1.1,2.2-1.6,3.8-1.6C484.8,230.7,486.1,231.2,487.1,232.3z M480.3,233.1
			c-0.7,0.8-1,1.9-1,3.3c0,1.3,0.3,2.4,1,3.2c0.7,0.9,1.7,1.3,2.9,1.3s2.2-0.4,2.9-1.2c0.7-0.8,1-1.9,1-3.3c0-1.4-0.3-2.5-1-3.3
			c-0.7-0.8-1.7-1.2-2.9-1.2S481,232.3,480.3,233.1z"/>
		<path class="st20" d="M496.3,230.9c2.5,0,3.7,1.1,3.7,3.2c0,2.1-1.2,3.2-3.7,3.2h-3.1v4.4h-1.2v-10.9H496.3z M493.1,236.3h3.1
			c0.9,0,1.5-0.2,1.9-0.5c0.4-0.3,0.6-0.9,0.6-1.6c0-0.7-0.2-1.3-0.6-1.6c-0.4-0.4-1.1-0.5-1.9-0.5h-3.1V236.3z"/>
		<path class="st20" d="M510.9,230.9v1.1h-6.4v3.6h6v1.1h-6v4h6.6v1.1h-7.9v-10.9H510.9z"/>
		<path class="st20" d="M519.3,230.9c1.1,0,1.9,0.2,2.5,0.7c0.6,0.5,1,1.3,1,2.3c0,0.6-0.2,1.1-0.5,1.6c-0.4,0.5-0.8,0.8-1.5,0.9v0
			c1,0.2,1.6,0.9,1.7,2l0.2,1.7c0.1,0.7,0.3,1.2,0.6,1.6h-1.3c-0.2-0.4-0.4-0.8-0.4-1.4l-0.1-1.4c-0.1-0.6-0.3-1.1-0.7-1.4
			c-0.4-0.3-0.9-0.4-1.5-0.4h-3.2v4.7h-1.2v-10.9H519.3z M515.9,236h3.2c0.8,0,1.4-0.2,1.8-0.6c0.4-0.3,0.6-0.8,0.6-1.5
			c0-0.7-0.2-1.2-0.6-1.5c-0.4-0.3-1-0.5-1.8-0.5h-3.2V236z"/>
		<path class="st20" d="M527.8,230.9v6.7c0,1.1,0.2,1.9,0.7,2.4c0.5,0.6,1.3,0.9,2.3,0.9c1.1,0,1.8-0.3,2.3-0.9
			c0.5-0.5,0.7-1.4,0.7-2.4v-6.7h1.2v6.7c0,1.4-0.4,2.5-1.1,3.2c-0.7,0.8-1.8,1.1-3.2,1.1c-1.4,0-2.5-0.4-3.2-1.1
			c-0.7-0.8-1.1-1.8-1.1-3.3v-6.7H527.8z"/>
		<path class="st20" d="M540.6,230.9l4,9.3h0l4-9.3h1.5v10.9h-1.2v-8.6h0l-3.7,8.6h-1.1l-3.7-8.6h0v8.6h-1.2v-10.9H540.6z"/>
	</g>
	<g>
		<path class="st21" d="M434,95.3"/>
		<line class="st22" x1="393.9" y1="39.3" x2="417.3" y2="22.4"/>
		<circle class="st23" cx="424.9" cy="16.3" r="10.7"/>
		<path class="st24" d="M342.9,105.1"/>
		<line class="st25" x1="392.1" y1="87.2" x2="401.7" y2="99"/>
		<circle class="st26" cx="400.5" cy="97.3" r="7.3"/>
		<line class="st27" x1="401.1" y1="61.1" x2="423.9" y2="61.1"/>
		<line class="st28" x1="353.5" y1="88.6" x2="342.8" y2="106.1"/>
		<circle class="st29" cx="339.7" cy="111.2" r="6.3"/>
		<line class="st30" x1="372.2" y1="26.9" x2="372.2" y2="17.4"/>
		<circle class="st31" cx="372.2" cy="15.4" r="4.2"/>
		<line class="st25" x1="339.3" y1="68.5" x2="306.8" y2="75.6"/>
		<path class="st32" d="M336.2,61.1c0-6.8,1.5-12.8,4.5-18.2c3-5.4,7.1-9.6,12.5-12.7c5.3-3,11.3-4.6,18.1-4.6
			c7.1,0,13.2,1.5,18.5,4.6c5.3,3,9.4,7.2,12.3,12.6c2.9,5.4,4.3,11.5,4.3,18.3c0,6.7-1.5,12.8-4.4,18.1c-3,5.4-7.1,9.6-12.4,12.6
			c-5.3,3-11.3,4.6-17.9,4.6c-7.1,0-13.4-1.5-18.7-4.5c-5.3-3-9.4-7.2-12.3-12.6C337.6,74,336.2,67.9,336.2,61.1z M400.8,61.1
			c0-6.5-1.3-12.2-3.9-16.9c-2.6-4.7-6.2-8.3-10.7-10.8c-4.5-2.5-9.5-3.7-15-3.7c-5.4,0-10.4,1.2-14.9,3.7
			c-4.5,2.5-8.1,6.1-10.7,10.8c-2.6,4.7-4,10.4-4,16.9c0,6.6,1.3,12.2,4,16.9c2.7,4.7,6.3,8.3,10.8,10.7c4.5,2.4,9.6,3.6,15.1,3.6
			c5.4,0,10.4-1.2,14.8-3.6c4.4-2.4,8-6,10.6-10.7C399.5,73.4,400.8,67.7,400.8,61.1z"/>
		<line class="st33" x1="343.5" y1="39.2" x2="327.4" y2="26.6"/>
		<circle class="st34" cx="326.2" cy="25.1" r="9.3"/>
		<circle class="st35" cx="306.5" cy="76.3" r="9.3"/>
		<circle class="st36" cx="429.8" cy="60.7" r="11.3"/>
	</g>
	<g>
		<line class="st31" x1="185.9" y1="181.8" x2="490.7" y2="181.8"/>
		<g>
			<path class="st32" d="M181.7,146.4h5.1v68.2h-5.1V146.4z"/>
			<path class="st32" d="M224,146.4l23.2,47.6l7,15.2h0.2l29.8-62.9h7.9v68.2h-5v-31.5c0-10.2,0.3-21,0.8-32.5h-0.5
				c-5.7,11.3-9.3,18.4-10.6,21.3l-20,42.7h-5l-20.5-42.7c-1-2.1-4.6-9.2-10.7-21.3h-0.3c0.5,14.4,0.8,25.3,0.8,32.5v31.5h-5.1
				v-68.2H224z"/>
			<path class="st32" d="M350.2,146.4h-5l-31.6,68.2h5.5l10.9-23.8c0,0,0-0.1,0.1-0.1H330c0,0,0.1,0,0.1,0c0.2-0.5,0.4-1,0.6-1.5
				c0.3-0.7,0.6-1.5,0.9-2.2c0,0.1,0.3-0.8,0.4-0.9c4.1-9,6.7-14.7,7.8-17c3.6-7.6,6.2-13.4,7.8-17.3h0.2
				c1.7,4.3,5.5,12.7,11.2,25.3c0.7,1.2,1.7,3.7,2.4,5.2l1,2.2c0.7,1.5,1.4,3,2.1,4.5c-0.1-0.3,0.9,2.1,0.9,2.1h0l10.8,23.5h5.6
				L350.2,146.4z"/>
			<path class="st32" d="M455,181v28.9c-5.2,1.4-10,2.1-14.2,2.1c-11.4,0-20.2-2.7-26.4-8.1c-6.2-5.4-9.3-13-9.3-22.7
				c0-7,1.7-12.8,5-17.6c3.3-4.8,7.7-8.4,13.1-10.7c5.4-2.3,11.3-3.5,17.6-3.5c2.7,0,5.6,0.3,8.7,0.8c3.1,0.5,5.7,1.1,7.6,1.7v-4.4
				c-1.2-0.6-3.3-1.1-6.2-1.6c-2.9-0.5-6.1-0.8-9.4-0.8c-8.1,0-15.2,1.5-21.6,4.4c-6.3,3-11.3,7.2-14.9,12.8
				c-3.6,5.6-5.4,12.1-5.4,19.7c0,10.6,3.6,18.9,10.7,24.8c7.1,6,16.9,9,29.4,9c4.2,0,8.3-0.3,12.4-1c4.1-0.7,6.7-1.5,7.9-2.3V181
				C458.6,181,456.8,181,455,181z"/>
			<path class="st32" d="M487.1,180.5c0-6.8,1.5-12.8,4.5-18.2c3-5.4,7.1-9.6,12.5-12.7c5.3-3,11.3-4.6,18.1-4.6
				c7.1,0,13.2,1.5,18.5,4.6c5.3,3,9.4,7.2,12.3,12.6c2.9,5.4,4.3,11.5,4.3,18.3c0,6.7-1.5,12.8-4.4,18.1c-3,5.4-7.1,9.6-12.4,12.6
				c-5.3,3-11.3,4.6-17.9,4.6c-7.1,0-13.4-1.5-18.7-4.5c-5.3-3-9.4-7.2-12.3-12.6C488.5,193.4,487.1,187.3,487.1,180.5z
				 M551.7,180.5c0-6.5-1.3-12.2-3.9-16.9c-2.6-4.7-6.2-8.3-10.7-10.8c-4.5-2.5-9.5-3.7-15-3.7c-5.4,0-10.4,1.2-14.9,3.7
				c-4.5,2.5-8.1,6.1-10.7,10.8c-2.6,4.7-4,10.4-4,16.9c0,6.6,1.3,12.2,4,16.9c2.7,4.7,6.3,8.3,10.8,10.7c4.5,2.4,9.6,3.6,15.1,3.6
				c5.4,0,10.4-1.2,14.8-3.6c4.4-2.4,8-6,10.6-10.7C550.4,192.8,551.7,187.1,551.7,180.5z"/>
		</g>
		<path class="st37" d="M369.4,180.7"/>
	</g>
</g>
</svg>
