<?xml version="1.0" encoding="utf-8"?>
<!-- Generator: Adobe Illustrator 24.1.0, SVG Export Plug-In . SVG Version: 6.00 Build 0)  -->
<svg version="1.1" xmlns="http://www.w3.org/2000/svg" xmlns:xlink="http://www.w3.org/1999/xlink" x="0px" y="0px"
	 viewBox="0 0 740 223" style="enable-background:new 0 0 740 223;" xml:space="preserve">
<style type="text/css">
	.st0{display:none;fill:none;stroke:#333333;stroke-width:4;stroke-miterlimit:10;}
	.st1{display:none;}
	.st2{display:inline;fill:none;stroke:#9AA26D;stroke-width:0.75;stroke-miterlimit:10;}
	.st3{display:inline;fill:#154E7C;stroke:#154E7C;stroke-width:6;stroke-miterlimit:10;}
	.st4{display:inline;fill:#C9AA55;stroke:#144E7D;stroke-width:3;stroke-miterlimit:10;}
	.st5{display:inline;fill:#154E7C;stroke:#154E7C;stroke-width:7;stroke-miterlimit:10;}
	.st6{display:inline;fill:#154E7C;stroke:#154E7C;stroke-width:5;stroke-miterlimit:10;}
	.st7{display:inline;fill:#154E7C;}
	.st8{display:inline;fill:#154E7C;stroke:#154E7C;stroke-width:4;stroke-miterlimit:10;}
	.st9{display:inline;fill:#7C8241;stroke:#154E7C;stroke-width:5;stroke-miterlimit:10;}
	.st10{display:inline;fill:#FFFFFF;stroke:#144E7D;stroke-width:3;stroke-miterlimit:10;}
	.st11{display:inline;fill:#154E7C;stroke:#154E7C;stroke-width:8;stroke-miterlimit:10;}
	.st12{display:inline;fill:#721711;stroke:#154E7C;stroke-width:4;stroke-miterlimit:10;}
	.st13{display:inline;fill:#72B8B0;stroke:#154E7C;stroke-width:8;stroke-miterlimit:10;}
	.st14{display:inline;fill:#FFFFFF;stroke:#154E7C;stroke-width:5;stroke-miterlimit:10;}
	.st15{display:inline;fill:#FFFFFF;stroke:#FFFFFF;stroke-width:7;stroke-miterlimit:10;}
	.st16{display:inline;fill:#FFFFFF;}
	.st17{display:inline;fill:#FFFFFF;stroke:#FFFFFF;stroke-width:8;stroke-miterlimit:10;}
	.st18{display:inline;fill:#7E7BAF;stroke:#154E7C;stroke-width:4;stroke-miterlimit:10;}
	.st19{display:inline;fill:none;stroke:#154E7C;stroke-width:7;stroke-miterlimit:10;}
	.st20{fill:#FFFFFF;stroke:#FFFFFF;stroke-miterlimit:10;}
	.st21{fill:none;stroke:#9AA26D;stroke-width:0.75;stroke-miterlimit:10;}
	.st22{fill:#FFFFFF;stroke:#FFFFFF;stroke-width:6;stroke-miterlimit:10;}
	.st23{fill:#C9AA55;stroke:#FFFFFF;stroke-width:3.5;stroke-miterlimit:10;}
	.st24{fill:#154E7C;stroke:#154E7C;stroke-width:7;stroke-miterlimit:10;}
	.st25{fill:#FFFFFF;stroke:#FFFFFF;stroke-width:5;stroke-miterlimit:10;}
	.st26{fill:#154E7C;stroke:#FFFFFF;stroke-width:2;stroke-miterlimit:10;}
	.st27{fill:#FFFFFF;stroke:#FFFFFF;stroke-width:3;stroke-miterlimit:10;}
	.st28{fill:#FFFFFF;stroke:#FFFFFF;stroke-width:4;stroke-miterlimit:10;}
	.st29{fill:#7C8241;stroke:#FFFFFF;stroke-width:5;stroke-miterlimit:10;}
	.st30{fill:#C9AA55;stroke:#FFFFFF;stroke-width:3;stroke-miterlimit:10;}
	.st31{fill:#FFFFFF;}
	.st32{fill:#FFFFFF;stroke:#FFFFFF;stroke-width:8;stroke-miterlimit:10;}
	.st33{fill:#721711;stroke:#FFFFFF;stroke-width:4;stroke-miterlimit:10;}
	.st34{fill:#7E7BAF;stroke:#FFFFFF;stroke-width:4;stroke-miterlimit:10;}
	.st35{fill:#72B8B0;stroke:#FFFFFF;stroke-width:6;stroke-miterlimit:10;}
	.st36{fill:none;stroke:#154E7C;stroke-width:7;stroke-miterlimit:10;}
</style>
<g id="Livello_3">
</g>
<g id="Livello_1">
	<polyline class="st0" points="229,40 591.6,40 646.4,93.1 	"/>
	<g class="st1">
		<path class="st2" d="M734,577.9"/>
		<line class="st3" x1="662.7" y1="478.4" x2="704.3" y2="448.4"/>
		<circle class="st4" cx="717.7" cy="437.6" r="19"/>
		<path class="st5" d="M584.5,584.5"/>
		<line class="st6" x1="659.5" y1="563.5" x2="676.6" y2="584.4"/>
		<circle class="st7" cx="674.5" cy="581.5" r="13"/>
		<line class="st5" x1="675.5" y1="517.2" x2="716" y2="517.2"/>
		<line class="st8" x1="594.2" y1="570.3" x2="581.2" y2="587.3"/>
		<circle class="st9" cx="574.8" cy="595.8" r="11.2"/>
		<line class="st4" x1="624.2" y1="456.5" x2="624.2" y2="439.5"/>
		<circle class="st10" cx="624.2" cy="436" r="7.5"/>
		<line class="st5" x1="285" y1="517.2" x2="564" y2="517.2"/>
		<path class="st7" d="M18.2,456.7h9v121h-9V456.7z"/>
		<path class="st7" d="M93.3,456.7l41.2,84.5l12.4,27.1h0.4l52.9-111.6h14.1v121h-8.8v-55.9c0-18.1,0.5-37.3,1.4-57.6h-0.8
			c-10.2,20.1-16.5,32.7-18.9,37.7l-35.5,75.8H143l-36.4-75.8c-1.8-3.7-8.1-16.3-19.1-37.7h-0.6c1,25.6,1.4,44.9,1.4,57.6v55.9h-9
			v-121H93.3z"/>
		<path class="st7" d="M317.3,456.7h-8.8l-56.1,121h9.8l19.3-42.3c0-0.1,0.1-0.2,0.1-0.3h-0.1c0,0,0.1,0,0.1,0
			c0.4-0.9,0.7-1.8,1.1-2.7c0.6-1.3,1.1-2.6,1.7-3.9c-0.1,0.2,0.6-1.5,0.7-1.6c7.3-16,12-26,13.9-30.2c6.4-13.6,11-23.8,13.9-30.7
			h0.4c3.1,7.6,9.7,22.5,19.9,44.9c1.3,2.1,3.1,6.6,4.2,9.3l1.8,3.9c1.3,2.6,2.5,5.3,3.8,8c-0.3-0.5,1.6,3.7,1.7,3.7h0l19.1,41.8h10
			L317.3,456.7z"/>
		<path class="st7" d="M503.4,518v51.3c-9.3,2.5-17.7,3.7-25.2,3.7c-20.2,0-35.8-4.8-46.8-14.3c-11-9.6-16.5-23-16.5-40.3
			c0-12.4,3-22.8,8.9-31.3c5.9-8.5,13.7-14.8,23.3-19c9.6-4.2,20.1-6.2,31.3-6.2c4.8,0,10,0.5,15.5,1.4c5.5,0.9,10.1,1.9,13.5,3.1
			v-7.8c-2.2-1-5.9-2-11-2.9c-5.2-0.9-10.8-1.4-16.8-1.4c-14.3,0-27.1,2.6-38.3,7.9c-11.3,5.2-20.1,12.8-26.5,22.7
			c-6.4,9.9-9.6,21.6-9.6,35c0,18.8,6.3,33.5,18.9,44.1c12.6,10.6,30,16,52.3,16c7.4,0,14.7-0.6,22-1.9c7.3-1.2,12-2.6,14-4.1V518
			C509.7,518,506.6,518,503.4,518z"/>
		<path class="st7" d="M560.3,517.2c0-12,2.6-22.8,8-32.4c5.3-9.6,12.7-17.1,22.1-22.5c9.4-5.4,20.1-8.1,32.1-8.1
			c12.5,0,23.5,2.7,32.9,8.1c9.4,5.4,16.7,12.9,21.7,22.4c5.1,9.5,7.6,20.4,7.6,32.5c0,11.9-2.6,22.7-7.9,32.2
			c-5.3,9.5-12.6,17-22,22.4c-9.4,5.4-20,8.1-31.9,8.1c-12.7,0-23.7-2.7-33.2-8.1c-9.5-5.4-16.8-12.8-21.9-22.3
			C562.8,540,560.3,529.3,560.3,517.2z M675,517.2c0-11.6-2.3-21.6-7-30c-4.7-8.4-11-14.8-18.9-19.2c-8-4.4-16.8-6.6-26.6-6.6
			c-9.6,0-18.5,2.2-26.5,6.6c-8,4.4-14.3,10.8-19,19.2c-4.7,8.4-7,18.4-7,30c0,11.7,2.4,21.7,7.1,30.1c4.7,8.4,11.1,14.7,19.1,19
			c8,4.3,17,6.4,26.8,6.4c9.6,0,18.4-2.1,26.3-6.4c7.9-4.3,14.1-10.6,18.8-19C672.6,538.9,675,528.9,675,517.2z"/>
		<line class="st11" x1="573.7" y1="482.5" x2="540.3" y2="468.5"/>
		<circle class="st12" cx="535" cy="465" r="16.5"/>
		<circle class="st13" cx="726.5" cy="516.5" r="20"/>
	</g>
	<g class="st1">
		
			<text transform="matrix(1.0094 0 0 1 -778.9976 270.9258)" style="display:inline;fill:#7C8241; font-family:'PingFangHK-Semibold-B5pc-H'; font-size:24px; letter-spacing:1;">INDEX MEDII AEVI GEOGRAPHIAE OPERUM</text>
		
			<text transform="matrix(1.11 0 0 1 -783.8291 238.1611)" class="st7" style="font-family:'ImprintMT-Shadow'; font-size:120px; letter-spacing:18.9;">IMAGO</text>
	</g>
	<g class="st1">
		<path class="st2" d="M482,65.9"/>
		<line class="st3" x1="410.7" y1="-33.6" x2="452.3" y2="-63.6"/>
		<circle class="st4" cx="465.7" cy="-74.4" r="19"/>
		<path class="st5" d="M320.2,83.3"/>
		<line class="st6" x1="407.5" y1="51.5" x2="424.6" y2="72.4"/>
		<circle class="st7" cx="422.5" cy="69.5" r="13"/>
		<line class="st5" x1="423.5" y1="5.2" x2="464" y2="5.2"/>
		<line class="st8" x1="339" y1="54" x2="320.1" y2="85"/>
		<circle class="st9" cx="314.5" cy="94.1" r="11.2"/>
		<line class="st4" x1="372.2" y1="-55.5" x2="372.2" y2="-72.5"/>
		<circle class="st10" cx="372.2" cy="-76" r="7.5"/>
		<line class="st14" x1="44" y1="217.2" x2="585" y2="217.2"/>
		<line class="st15" x1="313.8" y1="18.4" x2="256.1" y2="30.9"/>
		<path class="st16" d="M39.2,156.7h9v121h-9V156.7z"/>
		<path class="st16" d="M114.3,156.7l41.2,84.5l12.4,27.1h0.4l52.9-111.6h14.1v121h-8.8v-55.9c0-18.1,0.5-37.3,1.4-57.6h-0.8
			c-10.2,20.1-16.5,32.7-18.9,37.7l-35.5,75.8H164l-36.4-75.8c-1.8-3.7-8.1-16.3-19.1-37.7h-0.6c1,25.6,1.4,44.9,1.4,57.6v55.9h-9
			v-121H114.3z"/>
		<path class="st16" d="M338.3,156.7h-8.8l-56.1,121h9.8l19.3-42.3c0-0.1,0.1-0.2,0.1-0.3h-0.1c0,0,0.1,0,0.1,0
			c0.4-0.9,0.7-1.8,1.1-2.7c0.6-1.3,1.1-2.6,1.7-3.9c-0.1,0.2,0.6-1.5,0.7-1.6c7.3-16,12-26,13.9-30.2c6.4-13.6,11-23.8,13.9-30.7
			h0.4c3.1,7.6,9.7,22.5,19.9,44.9c1.3,2.1,3.1,6.6,4.2,9.3l1.8,3.9c1.3,2.6,2.5,5.3,3.8,8c-0.3-0.5,1.6,3.7,1.7,3.7h0l19.1,41.8h10
			L338.3,156.7z"/>
		<path class="st16" d="M524.4,218v51.3c-9.3,2.5-17.7,3.7-25.2,3.7c-20.2,0-35.8-4.8-46.8-14.3c-11-9.6-16.5-23-16.5-40.3
			c0-12.4,3-22.8,8.9-31.3c5.9-8.5,13.7-14.8,23.3-19c9.6-4.2,20.1-6.2,31.3-6.2c4.8,0,10,0.5,15.5,1.4c5.5,0.9,10.1,1.9,13.5,3.1
			v-7.8c-2.2-1-5.9-2-11-2.9c-5.2-0.9-10.8-1.4-16.8-1.4c-14.3,0-27.1,2.6-38.3,7.9c-11.3,5.2-20.1,12.8-26.5,22.7
			c-6.4,9.9-9.6,21.6-9.6,35c0,18.8,6.3,33.5,18.9,44.1c12.6,10.6,30,16,52.3,16c7.4,0,14.7-0.6,22-1.9c7.3-1.2,12-2.6,14-4.1V218
			C530.7,218,527.6,218,524.4,218z"/>
		<path class="st16" d="M581.3,217.2c0-12,2.6-22.8,8-32.4c5.3-9.6,12.7-17.1,22.1-22.5c9.4-5.4,20.1-8.1,32.1-8.1
			c12.5,0,23.5,2.7,32.9,8.1c9.4,5.4,16.7,12.9,21.7,22.4c5.1,9.5,7.6,20.4,7.6,32.5c0,11.9-2.6,22.7-7.9,32.2
			c-5.3,9.5-12.6,17-22,22.4c-9.4,5.4-20,8.1-31.9,8.1c-12.7,0-23.7-2.7-33.2-8.1c-9.5-5.4-16.8-12.8-21.9-22.3
			C583.8,240,581.3,229.3,581.3,217.2z M696,217.2c0-11.6-2.3-21.6-7-30c-4.7-8.4-11-14.8-18.9-19.2c-8-4.4-16.8-6.6-26.6-6.6
			c-9.6,0-18.5,2.2-26.5,6.6c-8,4.4-14.3,10.8-19,19.2c-4.7,8.4-7,18.4-7,30c0,11.7,2.4,21.7,7.1,30.1c4.7,8.4,11.1,14.7,19.1,19
			c8,4.3,17,6.4,26.8,6.4c9.6,0,18.4-2.1,26.3-6.4c7.9-4.3,14.1-10.6,18.8-19C693.6,238.9,696,228.9,696,217.2z"/>
		
			<text transform="matrix(1.0094 0 0 1 36.0024 325.9258)" style="display:inline;fill:#7C8241; font-family:'PingFangHK-Regular-B5pc-H'; font-size:27px; letter-spacing:3;">INDEX MEDII AEVI GEOGRAPHIAE OPERUM</text>
		<path class="st16" d="M308.3,5.2c0-12,2.6-22.8,8-32.4c5.3-9.6,12.7-17.1,22.1-22.5c9.4-5.4,20.1-8.1,32.1-8.1
			c12.5,0,23.5,2.7,32.9,8.1c9.4,5.4,16.7,12.9,21.7,22.4c5.1,9.5,7.6,20.4,7.6,32.5c0,11.9-2.6,22.7-7.9,32.2
			c-5.3,9.5-12.6,17-22,22.4c-9.4,5.4-20,8.1-31.9,8.1c-12.7,0-23.7-2.7-33.2-8.1c-9.5-5.4-16.8-12.8-21.9-22.3
			C310.8,28,308.3,17.3,308.3,5.2z M423,5.2c0-11.6-2.3-21.6-7-30c-4.7-8.4-11-14.8-18.9-19.2c-8-4.4-16.8-6.6-26.6-6.6
			c-9.6,0-18.5,2.2-26.5,6.6c-8,4.4-14.3,10.8-19,19.2c-4.7,8.4-7,18.4-7,30c0,11.7,2.4,21.7,7.1,30.1c4.7,8.4,11.1,14.7,19.1,19
			c8,4.3,17,6.4,26.8,6.4c9.6,0,18.4-2.1,26.3-6.4c7.9-4.3,14.1-10.6,18.8-19C420.6,26.9,423,16.9,423,5.2z"/>
		<line class="st17" x1="321.3" y1="-33.7" x2="292.8" y2="-56"/>
		<circle class="st12" cx="290.6" cy="-58.8" r="16.5"/>
		<circle class="st18" cx="255.6" cy="32.2" r="16.5"/>
		<circle class="st13" cx="474.5" cy="4.5" r="20"/>
		<path class="st19" d="M306.5,217.5"/>
	</g>
	<g>
		<path class="st20" d="M163.7,163.9v8.4h-1v-8.4H163.7z"/>
		<path class="st20" d="M168.1,163.9l5,6.8h0v-6.8h1v8.4h-1l-5-6.9h0v6.9h-1v-8.4H168.1z"/>
		<path class="st20" d="M180.5,163.9c1.4,0,2.4,0.4,3.2,1.1c0.7,0.7,1,1.7,1,3c0,1.3-0.4,2.3-1.1,3c-0.7,0.8-1.8,1.1-3.2,1.1h-3.1
			v-8.4H180.5z M178.4,171.4h1.9c1.1,0,2-0.3,2.6-0.9c0.5-0.6,0.8-1.4,0.8-2.5c0-1.1-0.3-2-0.8-2.5c-0.5-0.6-1.4-0.9-2.5-0.9h-2
			V171.4z"/>
		<path class="st20" d="M193.8,163.9v0.8h-5.2v2.8h4.9v0.8h-4.9v3.1h5.4v0.8h-6.5v-8.4H193.8z"/>
		<path class="st20" d="M197.6,163.9l2.4,3.3l2.4-3.3h1.2l-3,4l3.3,4.3h-1.2l-2.6-3.6l-2.6,3.6h-1.2l3.2-4.3l-3-4H197.6z"/>
		<path class="st20" d="M213.1,163.9l3.3,7.1h0l3.3-7.1h1.3v8.4h-1v-6.6h0l-3.1,6.6h-0.9l-3.1-6.6h0v6.6h-1v-8.4H213.1z"/>
		<path class="st20" d="M230.4,163.9v0.8h-5.2v2.8h4.9v0.8h-4.9v3.1h5.4v0.8h-6.5v-8.4H230.4z"/>
		<path class="st20" d="M236.7,163.9c1.4,0,2.4,0.4,3.2,1.1c0.7,0.7,1,1.7,1,3c0,1.3-0.4,2.3-1.1,3c-0.7,0.8-1.8,1.1-3.2,1.1h-3.1
			v-8.4H236.7z M234.5,171.4h1.9c1.1,0,2-0.3,2.6-0.9c0.5-0.6,0.8-1.4,0.8-2.5c0-1.1-0.3-2-0.8-2.5c-0.5-0.6-1.4-0.9-2.5-0.9h-2
			V171.4z"/>
		<path class="st20" d="M244.8,163.9v8.4h-1v-8.4H244.8z"/>
		<path class="st20" d="M249.2,163.9v8.4h-1v-8.4H249.2z"/>
		<path class="st20" d="M261.8,163.9l3.5,8.4h-1.1l-0.9-2.3h-4.1l-0.9,2.3h-1.1l3.5-8.4H261.8z M263,169.1l-1.7-4.2h0l-1.7,4.2H263z
			"/>
		<path class="st20" d="M273.9,163.9v0.8h-5.2v2.8h4.9v0.8h-4.9v3.1h5.4v0.8h-6.5v-8.4H273.9z"/>
		<path class="st20" d="M277.3,163.9l2.8,7.3h0l2.8-7.3h1.1l-3.3,8.4h-1.2l-3.3-8.4H277.3z"/>
		<path class="st20" d="M287.4,163.9v8.4h-1v-8.4H287.4z"/>
		<path class="st20" d="M302.7,164.5c0.6,0.5,1,1.2,1.2,2.1h-1c-0.1-0.6-0.4-1.1-0.9-1.5c-0.5-0.4-1.1-0.5-1.9-0.5
			c-1,0-1.7,0.3-2.3,1c-0.6,0.6-0.8,1.5-0.8,2.6c0,1.1,0.3,1.9,0.8,2.5c0.6,0.6,1.4,1,2.6,1c0.5,0,0.9-0.1,1.4-0.2
			c0.4-0.1,0.8-0.3,1.1-0.5v-2.1h-2.8v-0.8h3.8v3.4c-0.4,0.3-0.9,0.6-1.5,0.8c-0.6,0.2-1.3,0.3-2.1,0.3c-1.4,0-2.5-0.4-3.2-1.3
			c-0.7-0.8-1.1-1.8-1.1-3s0.3-2.3,1.1-3.1c0.8-0.9,1.8-1.3,3.1-1.3C301.2,163.7,302.1,164,302.7,164.5z"/>
		<path class="st20" d="M313.3,163.9v0.8h-5.2v2.8h4.9v0.8h-4.9v3.1h5.4v0.8h-6.5v-8.4H313.3z"/>
		<path class="st20" d="M323.4,165c0.7,0.8,1.1,1.8,1.1,3.1c0,1.3-0.4,2.3-1.1,3.1c-0.8,0.8-1.8,1.3-3.1,1.3c-1.3,0-2.4-0.4-3.1-1.3
			c-0.7-0.8-1.1-1.8-1.1-3.1c0-1.3,0.4-2.3,1.1-3.1c0.8-0.8,1.8-1.3,3.1-1.3C321.6,163.7,322.6,164.1,323.4,165z M317.8,165.6
			c-0.5,0.6-0.8,1.5-0.8,2.5c0,1,0.3,1.9,0.8,2.5c0.6,0.7,1.4,1,2.4,1s1.8-0.3,2.4-1c0.5-0.6,0.8-1.5,0.8-2.5c0-1.1-0.3-1.9-0.8-2.5
			c-0.6-0.6-1.4-1-2.4-1S318.4,164.9,317.8,165.6z"/>
		<path class="st20" d="M333.7,164.5c0.6,0.5,1,1.2,1.2,2.1h-1c-0.1-0.6-0.4-1.1-0.9-1.5c-0.5-0.4-1.1-0.5-1.9-0.5
			c-1,0-1.7,0.3-2.3,1c-0.6,0.6-0.8,1.5-0.8,2.6c0,1.1,0.3,1.9,0.8,2.5c0.6,0.6,1.4,1,2.6,1c0.5,0,0.9-0.1,1.4-0.2
			c0.4-0.1,0.8-0.3,1.1-0.5v-2.1h-2.8v-0.8h3.8v3.4c-0.4,0.3-0.9,0.6-1.5,0.8c-0.6,0.2-1.3,0.3-2.1,0.3c-1.4,0-2.5-0.4-3.2-1.3
			c-0.7-0.8-1.1-1.8-1.1-3s0.3-2.3,1.1-3.1c0.8-0.9,1.8-1.3,3.1-1.3C332.2,163.7,333.1,164,333.7,164.5z"/>
		<path class="st20" d="M341.8,163.9c0.9,0,1.6,0.2,2.1,0.6c0.5,0.4,0.8,1,0.8,1.8c0,0.5-0.1,0.9-0.4,1.2c-0.3,0.4-0.7,0.6-1.2,0.7
			v0c0.8,0.2,1.3,0.7,1.4,1.5l0.1,1.3c0,0.5,0.2,0.9,0.5,1.2H344c-0.2-0.3-0.3-0.6-0.4-1.1l-0.1-1.1c0-0.5-0.2-0.9-0.6-1.1
			c-0.3-0.2-0.7-0.3-1.3-0.3h-2.7v3.6h-1v-8.4H341.8z M339.1,167.8h2.7c0.6,0,1.1-0.2,1.5-0.4c0.3-0.3,0.5-0.6,0.5-1.1
			c0-0.5-0.2-0.9-0.5-1.1c-0.3-0.3-0.8-0.4-1.5-0.4h-2.7V167.8z"/>
		<path class="st20" d="M351.6,163.9l3.5,8.4H354l-0.9-2.3H349l-0.9,2.3H347l3.5-8.4H351.6z M352.7,169.1l-1.7-4.2h0l-1.7,4.2H352.7
			z"/>
		<path class="st20" d="M361,163.9c2,0,3,0.8,3,2.5c0,1.6-1,2.5-3.1,2.5h-2.6v3.4h-1v-8.4H361z M358.5,168h2.5
			c0.7,0,1.2-0.1,1.6-0.4c0.3-0.3,0.5-0.7,0.5-1.2s-0.2-1-0.5-1.2c-0.3-0.3-0.9-0.4-1.6-0.4h-2.5V168z"/>
		<path class="st20" d="M367.9,163.9v3.6h5.1v-3.6h1v8.4h-1v-3.9h-5.1v3.9h-1v-8.4H367.9z"/>
		<path class="st20" d="M378.3,163.9v8.4h-1v-8.4H378.3z"/>
		<path class="st20" d="M385.4,163.9l3.5,8.4h-1.1l-0.9-2.3h-4.1l-0.9,2.3h-1.1l3.5-8.4H385.4z M386.5,169.1l-1.7-4.2h0l-1.7,4.2
			H386.5z"/>
		<path class="st20" d="M397.4,163.9v0.8h-5.2v2.8h4.9v0.8h-4.9v3.1h5.4v0.8h-6.5v-8.4H397.4z"/>
		<path class="st20" d="M413.1,165c0.7,0.8,1.1,1.8,1.1,3.1c0,1.3-0.4,2.3-1.1,3.1c-0.8,0.8-1.8,1.3-3.1,1.3c-1.3,0-2.4-0.4-3.1-1.3
			c-0.7-0.8-1.1-1.8-1.1-3.1c0-1.3,0.4-2.3,1.1-3.1c0.8-0.8,1.8-1.3,3.1-1.3C411.3,163.7,412.3,164.1,413.1,165z M407.6,165.6
			c-0.5,0.6-0.8,1.5-0.8,2.5c0,1,0.3,1.9,0.8,2.5c0.6,0.7,1.4,1,2.4,1s1.8-0.3,2.4-1c0.5-0.6,0.8-1.5,0.8-2.5c0-1.1-0.3-1.9-0.8-2.5
			c-0.6-0.6-1.4-1-2.4-1S408.1,164.9,407.6,165.6z"/>
		<path class="st20" d="M420.7,163.9c2,0,3,0.8,3,2.5c0,1.6-1,2.5-3.1,2.5h-2.6v3.4h-1v-8.4H420.7z M418.1,168h2.5
			c0.7,0,1.2-0.1,1.6-0.4c0.3-0.3,0.5-0.7,0.5-1.2s-0.2-1-0.5-1.2c-0.3-0.3-0.9-0.4-1.6-0.4h-2.5V168z"/>
		<path class="st20" d="M432.7,163.9v0.8h-5.2v2.8h4.9v0.8h-4.9v3.1h5.4v0.8h-6.5v-8.4H432.7z"/>
		<path class="st20" d="M439.6,163.9c0.9,0,1.6,0.2,2.1,0.6c0.5,0.4,0.8,1,0.8,1.8c0,0.5-0.1,0.9-0.4,1.2c-0.3,0.4-0.7,0.6-1.2,0.7
			v0c0.8,0.2,1.3,0.7,1.4,1.5l0.1,1.3c0,0.5,0.2,0.9,0.5,1.2h-1.1c-0.2-0.3-0.3-0.6-0.4-1.1l-0.1-1.1c0-0.5-0.2-0.9-0.6-1.1
			c-0.3-0.2-0.7-0.3-1.3-0.3h-2.7v3.6h-1v-8.4H439.6z M436.8,167.8h2.7c0.6,0,1.1-0.2,1.5-0.4c0.3-0.3,0.5-0.6,0.5-1.1
			c0-0.5-0.2-0.9-0.5-1.1c-0.3-0.3-0.8-0.4-1.5-0.4h-2.7V167.8z"/>
		<path class="st20" d="M446.6,163.9v5.2c0,0.8,0.2,1.4,0.6,1.9c0.4,0.4,1,0.7,1.9,0.7c0.9,0,1.5-0.2,1.9-0.7c0.4-0.4,0.6-1,0.6-1.9
			v-5.2h1v5.1c0,1.1-0.3,1.9-0.9,2.5c-0.6,0.6-1.5,0.9-2.6,0.9c-1.2,0-2-0.3-2.6-0.9c-0.6-0.6-0.9-1.4-0.9-2.5v-5.1H446.6z"/>
		<path class="st20" d="M457.1,163.9l3.3,7.1h0l3.3-7.1h1.3v8.4h-1v-6.6h0l-3.1,6.6H460l-3.1-6.6h0v6.6h-1v-8.4H457.1z"/>
	</g>
	<g>
		<path class="st21" d="M568,148.3"/>
		<line class="st22" x1="527.9" y1="92.3" x2="551.3" y2="75.4"/>
		<circle class="st23" cx="558.9" cy="69.3" r="10.7"/>
		<path class="st24" d="M476.9,158.1"/>
		<line class="st25" x1="526.1" y1="140.2" x2="535.7" y2="152"/>
		<circle class="st26" cx="534.5" cy="150.3" r="7.3"/>
		<line class="st27" x1="535.1" y1="114.1" x2="557.9" y2="114.1"/>
		<line class="st28" x1="492.5" y1="143.6" x2="481.8" y2="161.1"/>
		<circle class="st29" cx="479.7" cy="165.2" r="6.3"/>
		<line class="st30" x1="506.2" y1="79.9" x2="506.2" y2="70.4"/>
		<circle class="st27" cx="506.2" cy="68.4" r="4.2"/>
		<line class="st25" x1="476.4" y1="125.7" x2="445.7" y2="138.4"/>
		<path class="st31" d="M470.2,114.1c0-6.8,1.5-12.8,4.5-18.2c3-5.4,7.1-9.6,12.5-12.7c5.3-3,11.3-4.6,18.1-4.6
			c7.1,0,13.2,1.5,18.5,4.6c5.3,3,9.4,7.2,12.3,12.6c2.9,5.4,4.3,11.5,4.3,18.3c0,6.7-1.5,12.8-4.4,18.1c-3,5.4-7.1,9.6-12.4,12.6
			c-5.3,3-11.3,4.6-17.9,4.6c-7.1,0-13.4-1.5-18.7-4.5c-5.3-3-9.4-7.2-12.3-12.6C471.6,127,470.2,120.9,470.2,114.1z M534.8,114.1
			c0-6.5-1.3-12.2-3.9-16.9c-2.6-4.7-6.2-8.3-10.7-10.8c-4.5-2.5-9.5-3.7-15-3.7c-5.4,0-10.4,1.2-14.9,3.7
			c-4.5,2.5-8.1,6.1-10.7,10.8c-2.6,4.7-4,10.4-4,16.9c0,6.6,1.3,12.2,4,16.9c2.7,4.7,6.3,8.3,10.8,10.7c4.5,2.4,9.6,3.6,15.1,3.6
			c5.4,0,10.4-1.2,14.8-3.6c4.4-2.4,8-6,10.6-10.7C533.5,126.4,534.8,120.7,534.8,114.1z"/>
		<line class="st32" x1="477.5" y1="92.2" x2="461.4" y2="79.6"/>
		<circle class="st33" cx="460.2" cy="78.1" r="9.3"/>
		<circle class="st34" cx="455.5" cy="134.3" r="9.3"/>
		<circle class="st35" cx="563.8" cy="113.7" r="11.3"/>
	</g>
	<g>
		<line class="st27" x1="165.9" y1="114.8" x2="470.7" y2="114.8"/>
		<g>
			<path class="st31" d="M161.7,79.4h5.1v68.2h-5.1V79.4z"/>
			<path class="st31" d="M204,79.4l23.2,47.6l7,15.2h0.2l29.8-62.9h7.9v68.2h-5v-31.5c0-10.2,0.3-21,0.8-32.5h-0.5
				c-5.7,11.3-9.3,18.4-10.6,21.3l-20,42.7h-5l-20.5-42.7c-1-2.1-4.6-9.2-10.7-21.3h-0.3c0.5,14.4,0.8,25.3,0.8,32.5v31.5h-5.1V79.4
				H204z"/>
			<path class="st31" d="M330.2,79.4h-5l-31.6,68.2h5.5l10.9-23.8c0,0,0-0.1,0.1-0.1H310c0,0,0.1,0,0.1,0c0.2-0.5,0.4-1,0.6-1.5
				c0.3-0.7,0.6-1.5,0.9-2.2c0,0.1,0.3-0.8,0.4-0.9c4.1-9,6.7-14.7,7.8-17c3.6-7.6,6.2-13.4,7.8-17.3h0.2
				c1.7,4.3,5.5,12.7,11.2,25.3c0.7,1.2,1.7,3.7,2.4,5.2l1,2.2c0.7,1.5,1.4,3,2.1,4.5c-0.1-0.3,0.9,2.1,0.9,2.1h0l10.8,23.5h5.6
				L330.2,79.4z"/>
			<path class="st31" d="M435,114v28.9c-5.2,1.4-10,2.1-14.2,2.1c-11.4,0-20.2-2.7-26.4-8.1c-6.2-5.4-9.3-13-9.3-22.7
				c0-7,1.7-12.8,5-17.6c3.3-4.8,7.7-8.4,13.1-10.7c5.4-2.3,11.3-3.5,17.6-3.5c2.7,0,5.6,0.3,8.7,0.8c3.1,0.5,5.7,1.1,7.6,1.7v-4.4
				c-1.2-0.6-3.3-1.1-6.2-1.6c-2.9-0.5-6.1-0.8-9.4-0.8c-8.1,0-15.2,1.5-21.6,4.4c-6.3,3-11.3,7.2-14.9,12.8
				c-3.6,5.6-5.4,12.1-5.4,19.7c0,10.6,3.6,18.9,10.7,24.8c7.1,6,16.9,9,29.4,9c4.2,0,8.3-0.3,12.4-1c4.1-0.7,6.7-1.5,7.9-2.3V114
				C438.6,114,436.8,114,435,114z"/>
		</g>
		<path class="st36" d="M349.4,113.7"/>
	</g>
</g>
</svg>
